<svg width="27" height="24" viewBox="0 0 27 24" fill="none" xmlns="http://www.w3.org/2000/svg">
<path d="M23.702 12.1786C24.2543 12.1786 24.7074 11.7297 24.6494 11.1805C24.5403 10.148 24.2623 9.13417 23.8229 8.17257C23.2425 6.9025 22.3918 5.74849 21.3193 4.77642C20.2469 3.80435 18.9737 3.03326 17.5725 2.50718C16.1712 1.9811 14.6694 1.71033 13.1528 1.71033C11.6361 1.71033 10.1343 1.9811 8.73306 2.50718C7.33184 3.03326 6.05866 3.80435 4.98621 4.77642C3.91376 5.74849 3.06305 6.9025 2.48265 8.17257C2.04321 9.13417 1.76524 10.148 1.65614 11.1805C1.59809 11.7297 2.05123 12.1786 2.60352 12.1786L13.1528 12.1786H23.702Z" fill="#2E424D"/>
<rect x="0.0634766" y="12.8763" width="26.1783" height="2.09366" rx="1.04683" fill="#2E424D"/>
<rect x="12.3252" width="1.58967" height="2.52279" rx="0.794835" fill="#2E424D"/>
<rect x="4.68359" y="16.7151" width="11.5492" height="2.09366" rx="1.04683" fill="#2E424D"/>
<rect x="5.45312" y="19.1578" width="13.0891" height="2.09366" rx="1" fill="#2E424D"/>
<rect width="8.27325" height="2.52413" rx="1.26206" transform="matrix(0.886012 -0.463661 0.537238 0.843431 16.2373 19.5042)" fill="#2E424D"/>
<rect width="4.74165" height="4.58689" rx="2.29345" transform="matrix(0.667573 0.744544 -0.805136 0.593091 5.68848 16.2921)" fill="#2E424D"/>
<rect width="5.09968" height="2.0062" transform="matrix(0.679337 0.733827 -0.795946 0.605367 1.59668 19.0432)" fill="#2E424D"/>
</svg>
