<svg width="24" height="24" viewBox="0 0 24 24" fill="none" xmlns="http://www.w3.org/2000/svg">
<circle cx="12" cy="12" r="11" stroke="#2E424D" stroke-width="2"/>
<path d="M10.9728 18.144V16.776C10.5768 16.752 10.1508 16.722 9.69482 16.686C9.23882 16.638 8.80682 16.578 8.39882 16.506V14.418C8.50682 14.418 8.66282 14.43 8.86682 14.454C9.08282 14.466 9.32282 14.484 9.58682 14.508C9.85082 14.52 10.1328 14.532 10.4328 14.544C10.7328 14.556 11.0268 14.562 11.3148 14.562C11.9028 14.562 12.3228 14.544 12.5748 14.508C12.8268 14.46 12.9828 14.376 13.0428 14.256C13.1028 14.136 13.1328 13.974 13.1328 13.77C13.1328 13.566 13.1148 13.422 13.0788 13.338C13.0548 13.242 12.9768 13.176 12.8448 13.14C12.7248 13.104 12.5328 13.074 12.2688 13.05L10.4508 12.798C9.75482 12.702 9.23882 12.522 8.90282 12.258C8.57882 11.994 8.36282 11.652 8.25482 11.232C8.14682 10.812 8.09282 10.326 8.09282 9.774C8.09282 9.126 8.20082 8.61 8.41682 8.226C8.63282 7.83 8.95082 7.53 9.37082 7.326C9.80282 7.11 10.3368 6.972 10.9728 6.912V5.472H13.0968V6.894C13.5528 6.918 13.9668 6.954 14.3388 7.002C14.7108 7.038 15.0588 7.092 15.3828 7.164V9.252C15.0588 9.228 14.7288 9.204 14.3928 9.18C14.0568 9.144 13.7388 9.12 13.4388 9.108C13.1388 9.096 12.8808 9.09 12.6648 9.09C12.2928 9.09 11.9868 9.102 11.7468 9.126C11.5188 9.138 11.3388 9.168 11.2068 9.216C11.0748 9.252 10.9788 9.318 10.9188 9.414C10.8708 9.51 10.8468 9.642 10.8468 9.81C10.8468 10.002 10.8588 10.152 10.8828 10.26C10.9188 10.356 10.9968 10.422 11.1168 10.458C11.2368 10.482 11.4228 10.512 11.6748 10.548L13.7088 10.8C14.2008 10.86 14.6088 10.974 14.9328 11.142C15.2568 11.298 15.4968 11.574 15.6528 11.97C15.8208 12.354 15.9048 12.93 15.9048 13.698C15.9048 14.394 15.8148 14.958 15.6348 15.39C15.4668 15.81 15.1788 16.128 14.7708 16.344C14.3628 16.548 13.8048 16.68 13.0968 16.74V18.144H10.9728Z" fill="#2E424D"/>
</svg>
