<svg width="862" height="300" viewBox="0 0 862 300" fill="none" xmlns="http://www.w3.org/2000/svg">
<g clip-path="url(#clip0_628785_677)">
<path d="M116.655 0C115.322 0 114.044 0.52945 113.101 1.47182C112.159 2.41418 111.629 3.69227 111.629 5.02498C111.629 6.35769 112.159 7.63582 113.101 8.57818C114.044 9.52055 115.322 10.05 116.655 10.05H218.6C219.933 10.05 221.211 9.52055 222.154 8.57818C223.096 7.63582 223.626 6.35769 223.626 5.02498C223.626 3.69227 223.096 2.41418 222.154 1.47182C221.211 0.52945 219.933 0 218.6 0H116.655Z" fill="#2E424D"/>
<path d="M116.655 29.6055C115.324 29.6076 114.047 30.138 113.107 31.0802C112.166 32.0223 111.638 33.2992 111.638 34.6304C111.638 35.9617 112.166 37.2386 113.107 38.1808C114.047 39.1229 115.324 39.6533 116.655 39.6555H218.6C219.932 39.6533 221.208 39.1229 222.149 38.1808C223.089 37.2386 223.618 35.9617 223.618 34.6304C223.618 33.2992 223.089 32.0223 222.149 31.0802C221.208 30.138 219.932 29.6076 218.6 29.6055H116.655Z" fill="#2E424D"/>
<path d="M167.629 123.499C161.372 123.499 155.257 121.644 150.055 118.169C144.853 114.694 140.798 109.754 138.404 103.975C136.01 98.1952 135.383 91.8357 136.604 85.7003C137.824 79.5649 140.837 73.9292 145.261 69.5057C149.684 65.0822 155.321 62.0697 161.457 60.8491C167.593 59.6286 173.953 60.2547 179.733 62.6485C185.513 65.0422 190.453 69.0959 193.929 74.2971C197.405 79.4983 199.261 85.6133 199.261 91.8688C199.252 100.255 195.916 108.294 189.986 114.224C184.056 120.154 176.015 123.49 167.629 123.499Z" fill="#EAEBED"/>
<path d="M643.402 0C642.069 0 640.79 0.52945 639.848 1.47182C638.905 2.41418 638.376 3.69227 638.376 5.02498C638.376 6.35769 638.905 7.63582 639.848 8.57818C640.79 9.52055 642.069 10.05 643.402 10.05H745.347C746.68 10.05 747.958 9.52055 748.9 8.57818C749.843 7.63582 750.372 6.35769 750.372 5.02498C750.372 3.69227 749.843 2.41418 748.9 1.47182C747.958 0.52945 746.68 0 745.347 0H643.402Z" fill="#2E424D"/>
<path d="M643.401 29.6055C642.07 29.6076 640.794 30.138 639.853 31.0802C638.912 32.0223 638.384 33.2992 638.384 34.6304C638.384 35.9617 638.912 37.2386 639.853 38.1808C640.794 39.1229 642.07 39.6533 643.401 39.6555H745.346C746.678 39.6533 747.954 39.1229 748.895 38.1808C749.835 37.2386 750.364 35.9617 750.364 34.6304C750.364 33.2992 749.835 32.0223 748.895 31.0802C747.954 30.138 746.678 29.6076 745.346 29.6055H643.401Z" fill="#2E424D"/>
<path d="M694.375 123.499C688.118 123.499 682.003 121.644 676.801 118.169C671.599 114.694 667.544 109.754 665.15 103.975C662.756 98.1952 662.129 91.8357 663.35 85.7003C664.57 79.5649 667.583 73.9292 672.007 69.5057C676.43 65.0822 682.067 62.0697 688.203 60.8491C694.339 59.6286 700.699 60.2547 706.479 62.6485C712.259 65.0422 717.199 69.0959 720.675 74.2971C724.151 79.4983 726.007 85.6133 726.007 91.8688C725.998 100.255 722.662 108.294 716.732 114.224C710.802 120.154 702.761 123.49 694.375 123.499Z" fill="#EAEBED"/>
<path d="M305.762 196.849C308.022 192.086 297.552 182.391 282.377 175.194C267.203 167.998 253.07 166.026 250.81 170.789C248.551 175.552 259.021 185.247 274.195 192.444C289.37 199.64 303.503 201.612 305.762 196.849Z" fill="#2E424D"/>
<path d="M431 245.909C435.042 242.525 429.579 229.344 418.798 216.468C408.016 203.592 395.998 195.898 391.956 199.282C387.913 202.666 393.377 215.848 404.158 228.724C414.94 241.599 426.957 249.294 431 245.909Z" fill="#2E424D"/>
<path d="M346.789 272.85C380.379 272.85 407.609 245.623 407.609 212.037C407.609 178.451 380.379 151.224 346.789 151.224C313.2 151.224 285.97 178.451 285.97 212.037C285.97 245.623 313.2 272.85 346.789 272.85Z" fill="#2E424D"/>
<path d="M372.532 259.763H354.055V292.864H372.532V259.763Z" fill="#2E424D"/>
<path d="M335.578 259.763H317.102V292.864H335.578V259.763Z" fill="#2E424D"/>
<path d="M357.135 299.022C365.638 299.022 372.532 296.437 372.532 293.249C372.532 290.06 365.638 287.475 357.135 287.475C348.631 287.475 341.737 290.06 341.737 293.249C341.737 296.437 348.631 299.022 357.135 299.022Z" fill="#2E424D"/>
<path d="M320.181 298.252C328.685 298.252 335.578 295.668 335.578 292.479C335.578 289.29 328.685 286.706 320.181 286.706C311.677 286.706 304.784 289.29 304.784 292.479C304.784 295.668 311.677 298.252 320.181 298.252Z" fill="#2E424D"/>
<path d="M327.693 135.593C333.123 113.725 357.095 100.856 381.236 106.849C405.376 112.843 420.543 135.43 415.112 157.298C409.682 179.166 391.664 179.237 367.524 173.243C343.384 167.25 322.262 157.462 327.693 135.593Z" fill="#98DAD9"/>
<path d="M337.697 219.48C348.895 219.48 357.974 210.402 357.974 199.205C357.974 188.007 348.895 178.93 337.697 178.93C326.498 178.93 317.419 188.007 317.419 199.205C317.419 210.402 326.498 219.48 337.697 219.48Z" fill="white"/>
<path d="M329.363 198.696C333.096 198.696 336.122 195.67 336.122 191.937C336.122 188.205 333.096 185.179 329.363 185.179C325.63 185.179 322.604 188.205 322.604 191.937C322.604 195.67 325.63 198.696 329.363 198.696Z" fill="#2E424D"/>
<path d="M350.417 241.447C351.056 244.972 350.269 248.607 348.229 251.553C346.189 254.498 343.062 256.513 339.537 257.155C336.011 257.797 332.375 257.013 329.428 254.975C326.48 252.937 324.463 249.813 323.818 246.288L323.813 246.262C322.483 238.916 328.163 236.317 335.51 234.987C342.856 233.658 349.087 234.101 350.417 241.447Z" fill="white"/>
<path d="M587.805 192.444C602.979 185.247 613.449 175.552 611.19 170.789C608.93 166.026 594.797 167.998 579.623 175.194C564.448 182.391 553.978 192.086 556.237 196.849C558.497 201.612 572.63 199.64 587.805 192.444Z" fill="#2E424D"/>
<path d="M457.842 228.724C468.623 215.848 474.086 202.666 470.044 199.282C466.001 195.898 453.984 203.592 443.202 216.468C432.42 229.344 426.957 242.525 431 245.91C435.042 249.294 447.06 241.6 457.842 228.724Z" fill="#2E424D"/>
<path d="M515.211 272.85C548.8 272.85 576.03 245.623 576.03 212.037C576.03 178.451 548.8 151.224 515.211 151.224C481.621 151.224 454.391 178.451 454.391 212.037C454.391 245.623 481.621 272.85 515.211 272.85Z" fill="#2E424D"/>
<path d="M507.945 259.763H489.468V292.864H507.945V259.763Z" fill="#2E424D"/>
<path d="M544.899 259.763H526.422V292.864H544.899V259.763Z" fill="#2E424D"/>
<path d="M504.866 299.022C513.369 299.022 520.263 296.437 520.263 293.249C520.263 290.06 513.369 287.475 504.866 287.475C496.362 287.475 489.468 290.06 489.468 293.249C489.468 296.437 496.362 299.022 504.866 299.022Z" fill="#2E424D"/>
<path d="M541.819 298.252C550.323 298.252 557.217 295.668 557.217 292.479C557.217 289.29 550.323 286.706 541.819 286.706C533.316 286.706 526.422 289.29 526.422 292.479C526.422 295.668 533.316 298.252 541.819 298.252Z" fill="#2E424D"/>
<path d="M534.308 135.593C528.877 113.725 504.905 100.856 480.764 106.849C456.624 112.843 441.457 135.43 446.888 157.298C452.318 179.166 470.336 179.237 494.476 173.243C518.616 167.25 539.738 157.462 534.308 135.593Z" fill="#98DAD9"/>
<path d="M524.303 219.48C535.502 219.48 544.58 210.402 544.58 199.205C544.58 188.007 535.502 178.93 524.303 178.93C513.104 178.93 504.026 188.007 504.026 199.205C504.026 210.402 513.104 219.48 524.303 219.48Z" fill="white"/>
<path d="M532.637 198.696C536.37 198.696 539.396 195.67 539.396 191.937C539.396 188.205 536.37 185.179 532.637 185.179C528.904 185.179 525.878 188.205 525.878 191.937C525.878 195.67 528.904 198.696 532.637 198.696Z" fill="#2E424D"/>
<path d="M511.583 241.447C510.944 244.972 511.731 248.607 513.771 251.553C515.812 254.498 518.938 256.513 522.463 257.155C525.989 257.797 529.625 257.013 532.572 254.975C535.52 252.937 537.538 249.813 538.182 246.288L538.187 246.262C539.517 238.916 533.837 236.317 526.49 234.987C519.144 233.658 512.913 234.101 511.583 241.447Z" fill="white"/>
<path d="M860.42 300H1.57962C1.16142 299.999 0.760754 299.832 0.465468 299.536C0.170183 299.24 0.00439453 298.839 0.00439453 298.42C0.00439453 298.002 0.170183 297.601 0.465468 297.305C0.760754 297.009 1.16142 296.842 1.57962 296.841H860.42C860.839 296.841 861.241 297.007 861.537 297.304C861.833 297.6 862 298.002 862 298.42C862 298.839 861.833 299.241 861.537 299.537C861.241 299.834 860.839 300 860.42 300Z" fill="#2E424D"/>
</g>
<defs>
<clipPath id="clip0_628785_677">
<rect width="862" height="300" fill="white"/>
</clipPath>
</defs>
</svg>
