<svg width="802" height="581" viewBox="0 0 802 581" fill="none" xmlns="http://www.w3.org/2000/svg">
<g clip-path="url(#clip0_628785_1230)">
<path d="M802 319.884C802 320.448 801.543 320.906 800.979 320.906H0V318.862H800.979C801.543 318.862 802 319.319 802 319.884Z" fill="#E6E6E6"/>
<path d="M263.366 71.6968C280.084 71.6968 293.636 58.1274 293.636 41.3888C293.636 24.6502 280.084 11.0808 263.366 11.0808C246.649 11.0808 233.097 24.6502 233.097 41.3888C233.097 58.1274 246.649 71.6968 263.366 71.6968Z" fill="#FFB6B6"/>
<path d="M279.407 78.0919L239.564 89.49L233.872 102.313L221.065 163.578V260.462C221.065 260.462 205.412 294.656 213.95 324.576C223.076 356.558 255.216 318.81 279.407 323.118C303.597 327.426 342.017 331.7 342.017 331.7L319.25 227.692L313.558 100.888L279.407 78.0919Z" fill="#E6E6E6"/>
<path d="M271.888 51.3139L265.733 48.2329C265.733 48.2329 264.195 34.3686 261.118 31.2877C258.041 28.2067 258.041 26.6663 258.041 26.6663L262.656 20.5043C262.656 20.5043 239.578 32.8282 234.963 25.1258C230.347 17.4234 236.501 14.3424 236.501 14.3424L228.809 8.18054C228.809 8.18054 238.04 14.3424 239.578 9.72101C241.117 5.09958 250.348 1.96404 250.348 1.96404C250.348 1.96404 270.506 6.53088 268.889 1.96404C267.272 -2.60281 273.426 2.01863 274.965 3.5591C276.503 5.09958 290.35 20.5043 291.888 18.9639C293.427 17.4234 301.12 22.0448 299.581 23.5853C298.043 25.1258 298.043 26.6663 299.581 28.2067C301.12 29.7472 310.351 46.6925 302.658 52.8544C294.966 59.0163 284.196 66.7187 285.734 72.8806C287.273 79.0425 285.734 52.8544 271.888 51.3139Z" fill="#2F2E41"/>
<path d="M122.672 127.621C114.903 120.916 112.061 111.466 116.324 106.516C120.587 101.566 130.339 102.991 138.11 109.7C141.251 112.337 143.716 115.69 145.297 119.476L177.857 148.305L164.02 163.315L133.391 133.302C129.416 132.292 125.741 130.345 122.672 127.621Z" fill="#FFB6B6"/>
<path d="M234.213 102.803L255.661 100.851L274.47 190.668C278.054 207.783 266.849 224.492 249.672 227.649L234.213 230.49L135.687 143.631L150.082 119.604L222.74 165.24L234.213 102.803Z" fill="#E6E6E6"/>
<path d="M186.331 502.233C186.331 502.233 169.32 533.865 170.535 532.648C171.75 531.431 192.407 538.731 192.407 538.731L204.557 507.099L186.331 502.233Z" fill="#FFB6B6"/>
<path d="M161.223 280.815C161.223 280.815 152.515 315.667 153.394 314.188C154.272 312.709 176.088 314.691 176.088 314.691L180.085 281.038L161.223 280.815Z" fill="#FFB6B6"/>
<path d="M312.699 274.954C274.256 280.362 239.533 275.647 211.24 253.436C211.24 253.436 190.584 322.782 228.251 330.082C265.919 337.382 307.839 324.835 312.699 312.669C317.559 300.503 312.699 274.954 312.699 274.954Z" fill="#2F2E41"/>
<path d="M241.009 296.854L199.089 395.779L179.648 510.141L205.165 516.224L250.807 410.987L312.699 310.236L241.009 296.854Z" fill="#2F2E41"/>
<path d="M235.542 268.643C235.542 268.643 225.821 193.213 207.595 188.347C198.71 185.974 190.402 186.204 184.22 187.063C177.99 187.928 173.023 192.695 171.934 198.898L155.371 293.204H178.792L186.331 267.655L206.38 302.708L235.542 268.643Z" fill="#2F2E41"/>
<path d="M176.003 305.142L152.845 302.708L149.271 316.091C149.271 316.091 111.604 350.156 131.045 352.589C150.486 355.023 168.712 341.64 168.712 341.64L195.456 326.279C195.456 326.279 185.116 298.678 177.826 298.678C170.535 298.678 176.003 305.142 176.003 305.142Z" fill="#2F2E41"/>
<path d="M188.154 533.256L164.996 530.823L161.422 544.206C161.422 544.206 123.755 578.271 143.196 580.704C162.637 583.138 180.863 569.755 180.863 569.755L207.607 554.394C207.607 554.394 205.772 525.577 198.482 525.577C191.192 525.577 188.154 533.256 188.154 533.256Z" fill="#2F2E41"/>
<path d="M305.411 349.081C302.619 358.669 295.414 364.999 289.32 363.219C283.226 361.438 280.55 352.223 283.345 342.632C284.409 338.785 286.377 335.249 289.086 332.32L301.429 291.842L320.276 298.047L306.107 337.292C306.819 341.221 306.58 345.263 305.411 349.081Z" fill="#FFB6B6"/>
<path d="M318.457 101.064L308.629 98.2891C299.362 116.75 295.377 137.419 297.115 158.007L301.966 215.456L285.961 316.432L317.33 324.558L342.05 197.838L318.457 101.064Z" fill="#E6E6E6"/>
<path d="M127.13 258.938C126.7 257.62 123.438 258.2 123.125 257.021C122.813 255.846 125.943 254.86 128.343 251.548C128.776 250.951 131.504 247.188 130.458 245.605C128.475 242.604 114.676 250.077 111.364 245.884C110.637 244.963 110.338 243.383 108.173 240.443C107.312 239.273 106.759 238.708 106.099 238.725C105.162 238.749 104.826 239.923 103.354 242.049C101.145 245.237 100.348 244.837 98.8932 247.449C97.8131 249.388 97.6851 250.628 96.9063 250.701C95.8041 250.804 95.3487 248.389 94.002 248.296C92.6277 248.2 91.2526 250.586 90.5709 252.45C89.2916 255.948 90.0838 258.621 90.2594 261.286C90.4502 264.181 90.0021 268.42 86.8599 273.861L57.2222 321.14C63.5872 311.502 81.6549 285.219 88.9344 275.578C91.0359 272.795 93.2941 270.001 96.77 269.475C100.116 268.969 104.188 270.626 109.871 270.53C110.535 270.519 112.382 270.464 112.832 269.483C113.203 268.673 112.281 267.968 112.616 267.207C113.066 266.185 115.091 266.623 117.851 265.944C119.796 265.466 121.118 264.675 122.255 263.995C122.598 263.79 127.703 260.694 127.13 258.938Z" fill="#EAEBED"/>
<path d="M49.5039 269.977C48.7333 269.808 48.0768 271.579 47.4083 271.392C46.7422 271.207 47.1622 269.384 46.2315 267.249C46.0637 266.864 45.0059 264.437 43.9281 264.495C41.8851 264.604 41.5669 273.541 38.5556 273.958C37.8948 274.05 37.034 273.741 34.9679 273.957C34.1459 274.043 33.7096 274.151 33.5273 274.481C33.2686 274.948 33.7471 275.451 34.3644 276.788C35.29 278.794 34.8638 279.07 35.7246 280.539C36.3636 281.629 36.9341 282.049 36.7452 282.453C36.4778 283.025 35.1629 282.552 34.7284 283.187C34.285 283.834 35.0577 285.198 35.7747 286.071C37.1202 287.709 38.6593 288.091 40.0161 288.774C41.4906 289.516 43.439 290.959 45.1992 294.073L59.8237 322.279C56.9356 316.37 49.2652 299.908 46.6398 293.549C45.8819 291.713 45.1636 289.797 45.9088 287.937C46.6262 286.147 48.6137 284.624 50.2062 281.803C50.3922 281.474 50.8982 280.55 50.5473 280.046C50.2573 279.63 49.6457 279.88 49.3691 279.495C48.9981 278.979 49.7972 278.111 50.2607 276.559C50.5875 275.465 50.5814 274.587 50.5761 273.832C50.5745 273.604 50.5296 270.202 49.5039 269.977Z" fill="#EAEBED"/>
<path d="M64.0942 276.859L64.5539 272.61L64.8359 272.343C66.1403 271.109 66.9563 269.801 67.2624 268.455C67.3111 268.241 67.3488 268.024 67.3875 267.804C67.5401 266.93 67.7296 265.844 68.5686 264.716C69.0381 264.087 70.2801 262.667 71.5611 263.163C71.9069 263.293 72.1402 263.517 72.3023 263.755C72.343 263.714 72.3847 263.673 72.4293 263.628C72.9827 263.09 73.3697 262.892 73.7426 262.702C74.0291 262.556 74.325 262.406 74.8257 262.005C75.0453 261.829 75.2212 261.671 75.3694 261.538C75.8189 261.136 76.3938 260.666 77.1813 260.852C78.0161 261.08 78.3023 261.878 78.4922 262.406C78.8314 263.347 78.9358 263.995 79.0049 264.424C79.0298 264.581 79.0587 264.758 79.0805 264.815C79.2632 265.276 81.5569 265.395 82.42 265.445C84.3599 265.551 86.0386 265.642 86.4423 266.972C86.732 267.923 86.1283 268.961 84.5962 270.138C84.119 270.505 83.6419 270.757 83.2262 270.946C83.4819 271.188 83.6856 271.517 83.698 271.966C83.7261 273.027 82.6391 273.841 80.4673 274.39C79.9276 274.528 79.2017 274.711 78.2517 274.664C77.8044 274.642 77.4125 274.574 77.0784 274.51C77.0286 274.7 76.9372 274.898 76.7725 275.086C76.2892 275.64 75.5085 275.781 74.4489 275.469C73.2791 275.143 72.3548 274.699 71.5393 274.309C70.8269 273.969 70.2126 273.678 69.6972 273.599C68.7386 273.465 67.8447 274.057 66.7749 274.846L64.0942 276.859Z" fill="#EAEBED"/>
<path d="M71.7443 252.655L67.5224 253.288L67.193 253.082C65.6696 252.132 64.1993 251.674 62.8214 251.719C62.6023 251.726 62.3836 251.744 62.1609 251.763C61.2781 251.836 60.1807 251.928 58.878 251.402C58.1516 251.107 56.4642 250.264 56.6187 248.897C56.6563 248.53 56.8139 248.247 57.0027 248.029C56.9524 248 56.9021 247.971 56.8477 247.939C56.1872 247.539 55.8984 247.214 55.6204 246.901C55.4065 246.661 55.1862 246.413 54.6718 246.029C54.4463 245.861 54.2488 245.731 54.0828 245.621C53.5805 245.288 52.9801 244.85 52.9604 244.04C52.9694 243.174 53.6671 242.694 54.1289 242.377C54.9524 241.809 55.5514 241.544 55.9488 241.368C56.094 241.304 56.2574 241.232 56.3073 241.196C56.7064 240.902 56.2398 238.65 56.0691 237.802C55.6788 235.896 55.3411 234.247 56.5236 233.519C57.3694 232.997 58.5251 233.318 60.051 234.504C60.5259 234.873 60.8911 235.271 61.1789 235.625C61.3479 235.316 61.6142 235.036 62.0442 234.91C63.0623 234.614 64.1247 235.46 65.2058 237.424C65.476 237.912 65.8365 238.568 66.0329 239.5C66.1249 239.939 66.1581 240.336 66.1809 240.676C66.3777 240.676 66.5923 240.714 66.8158 240.826C67.4736 241.153 67.8077 241.874 67.7748 242.979C67.7562 244.195 67.5618 245.203 67.3917 246.092C67.2441 246.868 67.1192 247.536 67.1733 248.056C67.2867 249.018 68.086 249.734 69.1193 250.57L71.7443 252.655Z" fill="#EAEBED"/>
<path d="M72.3135 239.961L72.7732 235.711L73.0551 235.444C74.3595 234.21 75.1756 232.902 75.4817 231.556C75.5304 231.342 75.5681 231.126 75.6067 230.905C75.7593 230.032 75.9488 228.945 76.7878 227.817C77.2573 227.189 78.4994 225.768 79.7804 226.264C80.1261 226.394 80.3595 226.619 80.5216 226.856C80.5623 226.815 80.604 226.774 80.6486 226.729C81.2019 226.191 81.589 225.994 81.9618 225.804C82.2484 225.658 82.5442 225.507 83.0449 225.106C83.2645 224.93 83.4404 224.772 83.5886 224.639C84.0381 224.237 84.613 223.767 85.4006 223.953C86.2354 224.182 86.5216 224.979 86.7115 225.507C87.0506 226.448 87.1551 227.096 87.2242 227.525C87.249 227.682 87.2779 227.859 87.2997 227.916C87.4825 228.377 89.7762 228.497 90.6392 228.546C92.5792 228.652 94.2578 228.743 94.6615 230.073C94.9512 231.025 94.3475 232.062 92.8155 233.24C92.3382 233.606 91.8611 233.859 91.4455 234.047C91.7011 234.289 91.9048 234.619 91.9173 235.067C91.9453 236.128 90.8583 236.942 88.6865 237.491C88.1468 237.629 87.4209 237.812 86.471 237.766C86.0236 237.744 85.6317 237.675 85.2976 237.611C85.2478 237.801 85.1564 238 84.9918 238.188C84.5084 238.742 83.7278 238.883 82.6682 238.57C81.4983 238.244 80.5741 237.8 79.7585 237.41C79.0461 237.07 78.4318 236.78 77.9164 236.7C76.9578 236.566 76.0639 237.159 74.9941 237.947L72.3135 239.961Z" fill="#EAEBED"/>
<path d="M58.6234 321.382L57.877 320.644L56.8394 320.534C56.8444 320.437 56.8376 320.208 56.83 319.851C56.7901 317.896 56.6662 311.947 57.4936 302.805C58.0714 296.424 59.0368 289.946 60.3631 283.549C61.6917 277.142 63.0706 272.375 64.178 268.544C65.0138 265.654 65.8574 262.913 66.6809 260.243C68.8786 253.109 70.9536 246.371 72.2386 238.685C72.5264 236.969 73.1236 233.398 71.9009 229.183C71.1914 226.738 69.9767 224.436 68.2893 222.345L69.9225 221.024C71.7845 223.336 73.1278 225.884 73.9157 228.599C75.2714 233.272 74.6207 237.164 74.308 239.034C73.0001 246.856 70.9044 253.659 68.6851 260.861C67.8658 263.521 67.0249 266.25 66.1928 269.128C65.0954 272.924 63.7289 277.65 62.4176 283.975C61.1063 290.295 60.1532 296.693 59.5818 302.994C58.7654 312.021 58.888 317.882 58.9282 319.807C58.9489 320.835 58.9534 321.05 58.6234 321.382Z" fill="#EAEBED"/>
<path d="M63.8091 224.763C63.7251 224.745 63.6406 224.724 63.5559 224.698C61.8335 224.215 60.4518 222.809 59.4481 220.522C58.9784 219.446 58.8675 218.314 58.6464 216.056C58.6117 215.707 58.4584 213.946 58.6468 211.611C58.7695 210.086 58.9333 209.473 59.3479 208.992C59.8084 208.456 60.4287 208.149 61.0843 207.995C61.102 207.793 61.168 207.595 61.299 207.408C61.8383 206.631 62.741 206.95 63.2308 207.116C63.4776 207.205 63.7851 207.318 64.131 207.376C64.6746 207.47 64.9992 207.375 65.4906 207.232C65.9607 207.096 66.5453 206.926 67.3533 206.94C68.9477 206.962 70.128 207.68 70.5172 207.916C72.5669 209.149 73.2746 211.116 74.0936 213.394C74.2563 213.851 74.7964 215.501 74.9222 217.627C75.013 219.16 74.8123 219.788 74.5822 220.236C74.1122 221.159 73.3926 221.587 71.6065 222.487C69.7404 223.43 68.8042 223.901 68.0366 224.144C66.2503 224.705 65.1286 225.058 63.8091 224.763Z" fill="#EAEBED"/>
<path d="M542.816 46.8924C542.816 46.8924 554.403 53.6967 550.603 60.4258C546.803 67.1549 541.505 76.3206 545.099 79.2073C548.693 82.0939 554.627 94.8213 554.627 94.8213C554.627 94.8213 579.956 91.2792 577.578 110.979C575.2 130.679 563.301 133.365 573.5 142.032C583.699 150.698 562.9 161.063 562.9 161.063C562.9 161.063 548.542 156.583 545.266 142.806C541.99 129.029 548.186 153.34 546.108 155.083C544.03 156.827 535.961 168.317 530.252 153.04C524.543 137.763 530.196 131.84 522.652 122.824C515.108 113.808 509.979 99.2253 510.203 96.6761C510.428 94.1269 501.574 70.8653 515.203 61.7934C528.831 52.7216 542.816 46.8924 542.816 46.8924Z" fill="#2F2E41"/>
<path d="M656.955 260.639C663.683 266.214 672.01 267.257 675.553 262.969C679.095 258.682 676.513 250.688 669.782 245.112C667.124 242.847 663.962 241.253 660.563 240.463L631.759 217.201L621.145 230.968L650.667 252.438C652.079 255.635 654.235 258.447 656.955 260.639Z" fill="#FFB6B6"/>
<path d="M570.627 133.776C570.627 133.776 548.023 118.64 540.62 126.062C533.218 133.484 534.986 152.022 534.986 152.022L594.264 221.194L641.269 251.11L653.873 231.348L614.355 196.041L570.627 133.776Z" fill="#2E424D"/>
<path d="M537.493 100.988L545.695 130.178H500.68L515.503 94.2121L537.493 100.988Z" fill="#FFB6B6"/>
<path opacity="0.1" d="M537.493 100.988L545.695 130.178H500.68L515.503 94.2121L537.493 100.988Z" fill="black"/>
<path d="M439.323 316.501C438.742 325.226 442.767 332.598 448.313 332.967C453.858 333.337 458.824 326.564 459.404 317.836C459.683 314.352 459.125 310.853 457.777 307.63L459.773 270.631L442.413 270.063L442.288 306.598C440.524 309.614 439.508 313.01 439.323 316.501Z" fill="#FFB6B6"/>
<path d="M491.598 172.189C491.598 172.189 490.638 144.978 480.296 143.307C469.954 141.637 455.97 153.916 455.97 153.916L434.608 242.516L437.868 298.188L461.248 296.866L466.735 244.121L491.598 172.189Z" fill="#2E424D"/>
<path d="M591.868 497.366C591.868 497.366 608.879 528.998 607.664 527.782C606.449 526.565 585.792 533.865 585.792 533.865L573.642 502.233L591.868 497.366Z" fill="#FFB6B6"/>
<path d="M616.976 275.948C616.976 275.948 625.683 310.8 624.805 309.321C623.927 307.843 602.111 309.825 602.111 309.825L598.114 276.171L616.976 275.948Z" fill="#FFB6B6"/>
<path d="M549.34 120.445H506.87L460.639 152.076L447.273 262.788L454.564 284.687L467.93 310.236C467.93 310.236 454.564 254.272 487.371 276.171C520.178 298.07 522.608 301.72 522.608 301.72L566.351 279.821L582.755 189.183L570.604 139.302L549.34 120.445Z" fill="#2E424D"/>
<path d="M465.499 270.088C503.943 275.495 538.666 270.781 566.958 248.569C566.958 248.569 587.615 317.916 549.947 325.216C512.28 332.515 470.36 319.969 465.499 307.803C460.639 295.637 465.499 270.088 465.499 270.088Z" fill="#2F2E41"/>
<path d="M537.189 291.987L579.109 390.913L598.551 505.274L573.034 511.357L527.392 406.12L465.5 305.37L537.189 291.987Z" fill="#2F2E41"/>
<path d="M542.657 263.777C542.657 263.777 552.378 188.347 570.604 183.48C579.489 181.108 587.797 181.338 593.979 182.197C600.209 183.062 605.176 187.828 606.266 194.031L622.828 288.337H599.407L591.868 262.788L571.819 297.842L542.657 263.777Z" fill="#2F2E41"/>
<path d="M602.196 300.275L625.354 297.842L628.928 311.225C628.928 311.225 666.595 345.29 647.154 347.723C627.713 350.156 609.486 336.774 609.486 336.774L582.743 321.413C582.743 321.413 593.083 293.812 600.373 293.812C607.664 293.812 602.196 300.275 602.196 300.275Z" fill="#2F2E41"/>
<path d="M590.045 528.39L613.203 525.957L616.777 539.339C616.777 539.339 654.444 573.405 635.003 575.838C615.562 578.271 597.335 564.888 597.335 564.888L570.592 549.527C570.592 549.527 572.426 520.71 579.717 520.71C587.007 520.71 590.045 528.39 590.045 528.39Z" fill="#2F2E41"/>
<path d="M526.798 107.331C541.77 107.331 553.907 95.1789 553.907 80.188C553.907 65.1971 541.77 53.0446 526.798 53.0446C511.826 53.0446 499.689 65.1971 499.689 80.188C499.689 95.1789 511.826 107.331 526.798 107.331Z" fill="#FFB6B6"/>
<path d="M537.19 49.8779C537.19 49.8779 541.708 62.5448 534.479 65.2592C527.25 67.9735 517.31 71.5926 518.213 76.1165C519.117 80.6404 515.502 94.2121 515.502 94.2121C515.502 94.2121 537.19 107.784 522.732 121.355C508.273 134.927 497.43 129.335 499.689 142.536C501.948 155.737 479.357 150.308 479.357 150.308C479.357 150.308 471.224 137.642 477.55 124.975C483.875 112.308 473.031 134.927 470.321 134.927C467.61 134.927 454.055 138.546 459.477 123.165C464.899 107.784 473.031 106.879 473.031 95.1169C473.031 83.3547 478.453 68.8783 480.261 67.0687C482.068 65.2592 490.201 41.7349 506.466 43.5445C522.732 45.354 537.19 49.8779 537.19 49.8779Z" fill="#2F2E41"/>
<path d="M300.249 497.366C300.249 497.366 283.238 528.998 284.453 527.782C285.668 526.565 306.324 533.865 306.324 533.865L318.475 502.233L300.249 497.366Z" fill="#A0616A"/>
<path d="M426.617 270.088C388.174 275.495 353.451 270.781 325.158 248.569C325.158 248.569 304.502 317.916 342.169 325.216C379.837 332.515 421.757 319.969 426.617 307.803C431.477 295.637 426.617 270.088 426.617 270.088Z" fill="#2F2E41"/>
<path d="M354.927 291.987L313.007 390.913L293.566 505.274L319.083 511.357L364.724 406.12L426.617 305.37L354.927 291.987Z" fill="#2F2E41"/>
<path d="M302.072 528.39L278.914 525.957L275.34 539.339C275.34 539.339 237.673 573.405 257.114 575.838C276.555 578.271 294.781 564.888 294.781 564.888L321.525 549.527C321.525 549.527 319.69 520.71 312.4 520.71C305.109 520.71 302.072 528.39 302.072 528.39Z" fill="#2F2E41"/>
<path d="M338.66 480.724C338.66 480.724 332.225 516.068 333.006 514.535C333.787 513.002 355.685 513.565 355.685 513.565L357.496 479.723L338.66 480.724Z" fill="#A0616A"/>
<path d="M327.39 268.473L317.996 375.522L334.739 490.311L360.885 488.215L371.876 374.013L399.707 259.058L327.39 268.473Z" fill="#2F2E41"/>
<path d="M349.952 509.671L327.174 514.51L327.898 528.344C327.898 528.344 302.564 572.383 321.807 568.692C341.049 565.001 354.263 546.641 354.263 546.641L374.969 523.769C374.969 523.769 364.345 496.924 357.41 499.176C350.475 501.428 349.952 509.671 349.952 509.671Z" fill="#2F2E41"/>
<path d="M349.301 46.8924C349.301 46.8924 337.713 53.6967 341.514 60.4258C345.314 67.1549 350.612 76.3206 347.018 79.2073C343.423 82.0939 337.489 94.8213 337.489 94.8213C337.489 94.8213 312.16 91.2792 314.538 110.979C316.916 130.679 328.815 133.365 318.616 142.032C308.418 150.698 329.216 161.063 329.216 161.063C329.216 161.063 343.575 156.583 346.851 142.806C350.126 129.029 343.93 153.34 346.008 155.083C348.086 156.827 356.155 168.317 361.865 153.04C367.574 137.763 361.92 131.84 369.464 122.824C377.009 113.808 382.138 99.2253 381.913 96.6761C381.688 94.1269 390.543 70.8653 376.914 61.7934C363.285 52.7216 349.301 46.8924 349.301 46.8924Z" fill="#2F2E41"/>
<path d="M354.624 100.988L346.422 130.178H391.437L376.614 94.2121L354.624 100.988Z" fill="#A0616A"/>
<path opacity="0.1" d="M354.624 100.988L346.422 130.178H391.437L376.614 94.2121L354.624 100.988Z" fill="black"/>
<path d="M452.793 316.501C453.374 325.226 449.349 332.598 443.804 332.967C438.258 333.337 433.293 326.564 432.713 317.836C432.433 314.352 432.991 310.853 434.339 307.63L432.343 270.631L449.704 270.063L449.828 306.598C451.592 309.614 452.609 313.01 452.793 316.501Z" fill="#A0616A"/>
<path d="M400.519 172.189C400.519 172.189 401.479 144.978 411.821 143.307C422.163 141.637 436.146 153.916 436.146 153.916L457.508 242.516L454.249 298.188L430.869 296.866L425.381 244.121L400.519 172.189Z" fill="#5B8291"/>
<path d="M342.777 120.445H385.247L431.478 152.077L444.843 262.788L437.553 284.687L424.187 310.236C424.187 310.236 437.553 254.272 404.746 276.171C404.418 276.39 404.093 276.607 403.771 276.822C382.652 290.946 354.786 289.496 335.238 273.264L319.69 260.355L328.196 217.774L321.513 139.302L342.777 120.445Z" fill="#5B8291"/>
<path d="M236.505 259.053C229.693 264.525 221.352 265.441 217.874 261.1C214.397 256.759 217.1 248.806 223.915 243.333C226.608 241.109 229.793 239.563 233.204 238.825L262.358 216.004L272.762 229.931L242.917 250.949C241.456 254.124 239.258 256.903 236.505 259.053Z" fill="#A0616A"/>
<path d="M324.749 133.519C324.749 133.519 347.58 118.728 354.869 126.262C362.158 133.796 360.109 152.305 360.109 152.305L299.787 220.566L252.334 249.764L240.031 229.813L280.08 195.111L324.749 133.519Z" fill="#5B8291"/>
<path d="M365.319 107.331C380.291 107.331 392.428 95.1789 392.428 80.188C392.428 65.1971 380.291 53.0446 365.319 53.0446C350.347 53.0446 338.209 65.1971 338.209 80.188C338.209 95.1789 350.347 107.331 365.319 107.331Z" fill="#A0616A"/>
<path d="M351.823 61.9941C351.823 61.9941 347.829 48.6645 354.485 48.6645C361.142 48.6645 387.767 49.9974 390.43 52.6633C393.092 55.3293 424.598 82.0848 405.961 103.412C387.323 124.739 405.961 135.044 405.961 135.044C405.961 135.044 419.718 167.297 406.405 169.963C393.092 172.629 338.485 157.385 351.823 132.64C366.297 105.787 373.032 63.4032 351.823 61.9941Z" fill="#2F2E41"/>
<path d="M795.423 260.155C794.993 258.836 791.731 259.417 791.417 258.238C791.105 257.062 794.235 256.077 796.636 252.765C797.069 252.168 799.797 248.404 798.751 246.821C796.767 243.821 782.969 251.294 779.657 247.1C778.93 246.18 778.631 244.6 776.465 241.66C775.604 240.49 775.051 239.925 774.391 239.942C773.454 239.966 773.119 241.139 771.646 243.265C769.438 246.454 768.641 246.053 767.186 248.666C766.106 250.605 765.978 251.844 765.199 251.917C764.097 252.021 763.641 249.606 762.294 249.512C760.92 249.417 759.545 251.803 758.863 253.667C757.584 257.164 758.376 259.838 758.552 262.503C758.743 265.398 758.295 269.637 755.152 275.077L725.515 322.357C731.88 312.719 749.947 286.436 757.227 276.795C759.328 274.012 761.587 271.217 765.062 270.692C768.409 270.185 772.481 271.843 778.164 271.747C778.828 271.735 780.675 271.68 781.124 270.7C781.496 269.89 780.573 269.185 780.909 268.423C781.359 267.401 783.384 267.84 786.143 267.161C788.089 266.683 789.411 265.892 790.548 265.212C790.89 265.007 795.996 261.91 795.423 260.155Z" fill="#EAEBED"/>
<path d="M717.796 271.194C717.026 271.025 716.369 272.795 715.701 272.609C715.035 272.423 715.455 270.601 714.524 268.465C714.356 268.08 713.298 265.654 712.221 265.711C710.178 265.82 709.859 274.757 706.848 275.175C706.187 275.267 705.326 274.958 703.26 275.174C702.438 275.259 702.002 275.368 701.82 275.697C701.561 276.165 702.04 276.668 702.657 278.005C703.583 280.01 703.156 280.287 704.017 281.755C704.656 282.846 705.227 283.266 705.038 283.67C704.77 284.241 703.455 283.768 703.021 284.403C702.578 285.051 703.35 286.415 704.067 287.288C705.413 288.926 706.952 289.308 708.309 289.991C709.783 290.732 711.732 292.175 713.492 295.289L728.116 323.496C725.228 317.587 717.558 301.124 714.932 294.765C714.174 292.93 713.456 291.014 714.201 289.154C714.919 287.363 716.906 285.841 718.499 283.02C718.685 282.69 719.191 281.767 718.84 281.263C718.55 280.847 717.938 281.097 717.662 280.712C717.291 280.196 718.09 279.327 718.553 277.776C718.88 276.681 718.874 275.804 718.869 275.049C718.867 274.821 718.822 271.419 717.796 271.194Z" fill="#EAEBED"/>
<path d="M732.387 278.076L732.846 273.827L733.128 273.56C734.433 272.325 735.249 271.017 735.555 269.672C735.604 269.458 735.641 269.241 735.68 269.021C735.833 268.147 736.022 267.061 736.861 265.933C737.331 265.304 738.573 263.884 739.854 264.38C740.199 264.509 740.433 264.734 740.595 264.972C740.635 264.93 740.677 264.889 740.722 264.845C741.275 264.306 741.662 264.109 742.035 263.919C742.322 263.773 742.617 263.623 743.118 263.222C743.338 263.046 743.514 262.888 743.662 262.755C744.111 262.353 744.686 261.882 745.474 262.069C746.309 262.297 746.595 263.094 746.785 263.622C747.124 264.564 747.228 265.211 747.297 265.641C747.322 265.798 747.351 265.974 747.373 266.032C747.556 266.493 749.849 266.612 750.712 266.662C752.652 266.767 754.331 266.858 754.735 268.188C755.024 269.14 754.421 270.178 752.889 271.355C752.411 271.721 751.934 271.974 751.519 272.163C751.774 272.405 751.978 272.734 751.991 273.182C752.019 274.243 750.932 275.058 748.76 275.607C748.22 275.745 747.494 275.927 746.544 275.881C746.097 275.859 745.705 275.79 745.371 275.726C745.321 275.917 745.23 276.115 745.065 276.303C744.582 276.857 743.801 276.998 742.741 276.686C741.572 276.359 740.647 275.915 739.832 275.525C739.119 275.185 738.505 274.895 737.99 274.815C737.031 274.681 736.137 275.274 735.067 276.063L732.387 278.076Z" fill="#EAEBED"/>
<path d="M740.037 253.872L735.815 254.505L735.485 254.299C733.962 253.349 732.492 252.89 731.114 252.935C730.895 252.942 730.676 252.961 730.453 252.979C729.571 253.053 728.473 253.145 727.171 252.619C726.444 252.323 724.757 251.481 724.911 250.114C724.949 249.746 725.106 249.463 725.295 249.246C725.245 249.217 725.195 249.187 725.14 249.155C724.48 248.756 724.191 248.431 723.913 248.118C723.699 247.878 723.479 247.629 722.964 247.246C722.739 247.078 722.541 246.948 722.375 246.838C721.873 246.505 721.273 246.067 721.253 245.257C721.262 244.391 721.96 243.911 722.421 243.593C723.245 243.026 723.844 242.761 724.241 242.585C724.386 242.521 724.55 242.448 724.6 242.412C724.999 242.119 724.532 239.867 724.362 239.018C723.971 237.113 723.634 235.464 724.816 234.735C725.662 234.214 726.818 234.535 728.343 235.72C728.818 236.089 729.184 236.487 729.471 236.842C729.64 236.533 729.907 236.252 730.337 236.127C731.355 235.83 732.417 236.677 733.498 238.641C733.769 239.128 734.129 239.785 734.325 240.717C734.417 241.156 734.451 241.553 734.473 241.893C734.67 241.892 734.885 241.931 735.108 242.042C735.766 242.37 736.1 243.09 736.067 244.196C736.049 245.412 735.854 246.419 735.684 247.308C735.537 248.084 735.412 248.753 735.466 249.272C735.579 250.235 736.379 250.95 737.412 251.786L740.037 253.872Z" fill="#EAEBED"/>
<path d="M740.606 241.177L741.066 236.928L741.348 236.661C742.652 235.427 743.468 234.119 743.774 232.773C743.823 232.559 743.861 232.342 743.899 232.122C744.052 231.248 744.241 230.162 745.08 229.034C745.55 228.405 746.792 226.985 748.073 227.481C748.419 227.611 748.652 227.835 748.814 228.073C748.855 228.032 748.896 227.991 748.941 227.946C749.494 227.408 749.881 227.21 750.254 227.02C750.541 226.874 750.837 226.724 751.337 226.323C751.557 226.147 751.733 225.989 751.881 225.856C752.331 225.454 752.906 224.984 753.693 225.17C754.528 225.398 754.814 226.196 755.004 226.724C755.343 227.665 755.448 228.313 755.517 228.742C755.542 228.899 755.57 229.076 755.592 229.133C755.775 229.594 758.069 229.713 758.932 229.763C760.872 229.869 762.55 229.96 762.954 231.29C763.244 232.241 762.64 233.279 761.108 234.456C760.631 234.823 760.154 235.075 759.738 235.264C759.994 235.506 760.197 235.835 760.21 236.284C760.238 237.345 759.151 238.159 756.979 238.708C756.439 238.846 755.713 239.029 754.763 238.982C754.316 238.96 753.924 238.892 753.59 238.828C753.54 239.018 753.449 239.216 753.284 239.404C752.801 239.958 752.02 240.099 750.961 239.787C749.791 239.461 748.867 239.017 748.051 238.627C747.339 238.287 746.724 237.996 746.209 237.917C745.25 237.783 744.356 238.375 743.287 239.164L740.606 241.177Z" fill="#EAEBED"/>
<path d="M726.916 322.599L726.169 321.861L725.132 321.751C725.137 321.653 725.13 321.425 725.122 321.068C725.083 319.113 724.959 313.163 725.786 304.022C726.364 297.641 727.329 291.163 728.656 284.766C729.984 278.359 731.363 273.592 732.47 269.76C733.306 266.87 734.15 264.129 734.973 261.459C737.171 254.326 739.246 247.588 740.531 239.902C740.819 238.186 741.416 234.615 740.193 230.399C739.484 227.954 738.269 225.653 736.582 223.561L738.215 222.241C740.077 224.552 741.42 227.101 742.208 229.815C743.564 234.489 742.913 238.381 742.601 240.251C741.293 248.072 739.197 254.875 736.978 262.077C736.158 264.738 735.317 267.467 734.485 270.345C733.388 274.141 732.021 278.867 730.71 285.191C729.399 291.512 728.446 297.91 727.874 304.211C727.058 313.237 727.181 319.098 727.221 321.024C727.241 322.052 727.246 322.267 726.916 322.599Z" fill="#EAEBED"/>
<path d="M732.102 225.98C732.018 225.961 731.933 225.94 731.848 225.915C730.126 225.432 728.744 224.026 727.741 221.738C727.271 220.663 727.16 219.53 726.939 217.272C726.904 216.924 726.751 215.163 726.939 212.828C727.062 211.302 727.226 210.689 727.64 210.208C728.101 209.672 728.721 209.365 729.377 209.211C729.395 209.009 729.461 208.812 729.591 208.625C730.131 207.848 731.033 208.167 731.523 208.333C731.77 208.422 732.078 208.535 732.423 208.593C732.967 208.687 733.292 208.591 733.783 208.449C734.253 208.312 734.838 208.142 735.646 208.157C737.24 208.179 738.42 208.896 738.81 209.132C740.859 210.365 741.567 212.333 742.386 214.611C742.549 215.068 743.089 216.718 743.215 218.843C743.306 220.377 743.105 221.004 742.875 221.453C742.405 222.376 741.685 222.803 739.899 223.703C738.033 224.646 737.097 225.118 736.329 225.361C734.543 225.922 733.421 226.275 732.102 225.98Z" fill="#EAEBED"/>
<path d="M203.112 249.031L201.741 205.729C201.719 205.026 201.995 204.341 202.498 203.851C203.002 203.361 203.693 203.103 204.395 203.146L238.714 205.206C239.407 205.248 240.058 205.58 240.498 206.117C240.94 206.654 241.139 207.357 241.046 208.046L235.241 251.085C235.065 252.387 233.902 253.339 232.593 253.252L205.45 251.455C205.175 251.437 204.913 251.375 204.67 251.277C203.774 250.914 203.144 250.051 203.112 249.031Z" fill="#98DAD9"/>
<path d="M201.784 201.678C202.264 201.627 202.907 201.565 203.679 201.5C203.473 201.115 203.388 200.66 203.476 200.193L204.089 196.949C204.248 196.107 204.926 195.462 205.774 195.349C210.827 194.672 228.207 192.836 239.152 197.808C239.836 198.119 240.277 198.802 240.299 199.554L240.399 203.015C240.411 203.443 240.287 203.839 240.069 204.168C240.979 204.413 241.886 204.672 242.786 204.954C243.349 205.131 243.753 205.63 243.821 206.217L243.991 207.691C244.098 208.626 243.333 209.431 242.395 209.367L201.366 206.593C200.432 206.53 199.782 205.638 200.007 204.728L200.479 202.814C200.632 202.198 201.153 201.744 201.784 201.678Z" fill="#2E424D"/>
<path d="M99.8302 126.153L98.4593 82.8508C98.437 82.1479 98.7129 81.4636 99.2165 80.9733C99.7203 80.4828 100.412 80.2256 101.113 80.2677L135.432 82.3286C136.125 82.3699 136.776 82.7018 137.217 83.239C137.658 83.7759 137.858 84.4789 137.765 85.1678L131.959 128.207C131.783 129.509 130.62 130.461 129.311 130.374L102.169 128.577C101.893 128.559 101.631 128.497 101.388 128.399C100.492 128.036 99.8625 127.173 99.8302 126.153Z" fill="#98DAD9"/>
<path d="M98.5019 78.8C98.982 78.7493 99.6252 78.6871 100.397 78.6221C100.191 78.2373 100.106 77.7822 100.195 77.3151L100.808 74.0715C100.967 73.2297 101.644 72.5843 102.492 72.4708C107.545 71.7942 124.926 69.9587 135.87 74.9301C136.555 75.2412 136.995 75.9241 137.017 76.6766L137.117 80.137C137.129 80.5649 137.005 80.9614 136.788 81.2902C137.697 81.5352 138.604 81.7942 139.504 82.0766C140.068 82.2536 140.471 82.7518 140.539 83.3394L140.709 84.8134C140.817 85.7487 140.051 86.5528 139.113 86.4893L98.0841 83.715C97.1504 83.6519 96.5001 82.7597 96.7248 81.8502L97.1975 79.9367C97.3498 79.3202 97.8711 78.8665 98.5019 78.8Z" fill="#2E424D"/>
<path d="M638.11 259.981L636.739 216.678C636.717 215.975 636.993 215.291 637.496 214.801C638 214.31 638.691 214.053 639.393 214.095L673.712 216.156C674.405 216.197 675.056 216.529 675.496 217.066C675.938 217.603 676.137 218.306 676.044 218.995L670.239 262.034C670.063 263.337 668.9 264.289 667.591 264.202L640.449 262.404C640.173 262.386 639.911 262.325 639.668 262.226C638.772 261.863 638.142 261.001 638.11 259.981Z" fill="#98DAD9"/>
<path d="M636.782 212.627C637.262 212.577 637.905 212.514 638.677 212.45C638.471 212.065 638.386 211.61 638.474 211.142L639.087 207.899C639.246 207.057 639.924 206.412 640.772 206.298C645.825 205.622 663.206 203.786 674.15 208.757C674.834 209.069 675.275 209.752 675.297 210.504L675.397 213.964C675.409 214.392 675.285 214.789 675.067 215.118C675.977 215.363 676.884 215.622 677.784 215.904C678.347 216.081 678.751 216.579 678.819 217.167L678.989 218.641C679.097 219.576 678.331 220.38 677.393 220.317L636.364 217.542C635.43 217.479 634.78 216.587 635.005 215.678L635.477 213.764C635.63 213.148 636.151 212.694 636.782 212.627Z" fill="#2E424D"/>
</g>
<defs>
<clipPath id="clip0_628785_1230">
<rect width="802" height="581" fill="white"/>
</clipPath>
</defs>
</svg>
