<svg width="25" height="23" viewBox="0 0 25 23" fill="none" xmlns="http://www.w3.org/2000/svg">
<path d="M21.0196 18.4863L17.5688 15.2375C18.6822 13.8982 19.2863 12.2443 19.284 10.5417C19.284 9.02535 18.8078 7.54308 17.9156 6.2823C17.0235 5.02152 15.7554 4.03887 14.2717 3.45859C12.788 2.87832 11.1555 2.7265 9.58044 3.02232C8.0054 3.31814 6.55863 4.04832 5.42309 5.12052C4.28755 6.19272 3.51424 7.55879 3.20094 9.04598C2.88765 10.5332 3.04844 12.0747 3.66299 13.4756C4.27754 14.8765 5.31824 16.0738 6.6535 16.9163C7.98875 17.7587 9.55859 18.2083 11.1645 18.2083C12.9677 18.2105 14.7193 17.64 16.1377 16.5888L19.5784 19.8471C19.6727 19.9369 19.785 20.0082 19.9087 20.0569C20.0323 20.1055 20.165 20.1306 20.299 20.1306C20.433 20.1306 20.5656 20.1055 20.6893 20.0569C20.813 20.0082 20.9252 19.9369 21.0196 19.8471C21.1147 19.758 21.1902 19.652 21.2418 19.5352C21.2933 19.4184 21.3198 19.2932 21.3198 19.1667C21.3198 19.0402 21.2933 18.9149 21.2418 18.7981C21.1902 18.6813 21.1147 18.5753 21.0196 18.4863ZM5.07481 10.5417C5.07481 9.40443 5.43197 8.29273 6.10111 7.34714C6.77025 6.40156 7.72133 5.66457 8.83407 5.22936C9.94681 4.79416 11.1712 4.68029 12.3525 4.90215C13.5338 5.12402 14.6189 5.67165 15.4705 6.47581C16.3222 7.27996 16.9022 8.30451 17.1371 9.4199C17.3721 10.5353 17.2515 11.6914 16.7906 12.7421C16.3297 13.7928 15.5492 14.6908 14.5477 15.3226C13.5463 15.9544 12.3689 16.2917 11.1645 16.2917C9.5494 16.2917 8.00047 15.6859 6.85844 14.6075C5.7164 13.5292 5.07481 12.0667 5.07481 10.5417Z" fill="#231F20" fill-opacity="0.4"/>
</svg>
