<svg width="20" height="21" viewBox="0 0 20 21" fill="none" xmlns="http://www.w3.org/2000/svg">
<path d="M10 0.666748C7.36507 0.666643 4.83657 1.4985 2.96405 2.98153C1.09154 4.46456 0.0263493 6.47889 0 8.58672C0 14.0667 8.8125 20.1667 9.1875 20.4267C9.41392 20.5816 9.70206 20.6667 10 20.6667C10.2979 20.6667 10.5861 20.5816 10.8125 20.4267C11.25 20.1667 20 14.0667 20 8.58672C19.9736 6.47889 18.9085 4.46456 17.0359 2.98153C15.1634 1.4985 12.6349 0.666643 10 0.666748ZM10 18.3167C7.9125 16.7267 2.5 12.3167 2.5 8.58672C2.5 6.99543 3.29018 5.46931 4.6967 4.3441C6.10322 3.21888 8.01088 2.58674 10 2.58674C11.9891 2.58674 13.8968 3.21888 15.3033 4.3441C16.7098 5.46931 17.5 6.99543 17.5 8.58672C17.5 12.2867 12.0875 16.7267 10 18.3167Z" fill="#EAEBED"/>
<path d="M10 4.66675C9.13471 4.66675 8.28885 4.87202 7.56938 5.2566C6.84992 5.64119 6.28916 6.18781 5.95803 6.82735C5.6269 7.46689 5.54026 8.17062 5.70907 8.84955C5.87788 9.52848 6.29456 10.1521 6.90641 10.6416C7.51827 11.1311 8.29781 11.4644 9.14648 11.5995C9.99515 11.7345 10.8748 11.6652 11.6742 11.4003C12.4737 11.1354 13.157 10.6868 13.6377 10.1112C14.1184 9.53566 14.375 8.85897 14.375 8.16674C14.375 7.23848 13.9141 6.34825 13.0936 5.69187C12.2731 5.0355 11.1603 4.66675 10 4.66675ZM10 9.66673C9.62916 9.66673 9.26665 9.57876 8.95831 9.41394C8.64997 9.24912 8.40964 9.01485 8.26773 8.74076C8.12581 8.46667 8.08868 8.16507 8.16103 7.8741C8.23338 7.58313 8.41195 7.31586 8.67418 7.10608C8.9364 6.8963 9.27049 6.75344 9.63421 6.69556C9.99792 6.63769 10.3749 6.66739 10.7175 6.78092C11.0601 6.89445 11.353 7.08671 11.559 7.33338C11.765 7.58006 11.875 7.87007 11.875 8.16674C11.875 8.56456 11.6775 8.94609 11.3258 9.22739C10.9742 9.5087 10.4973 9.66673 10 9.66673Z" fill="#EAEBED"/>
</svg>
