<svg width="20" height="25" viewBox="0 0 20 25" fill="none" xmlns="http://www.w3.org/2000/svg">
<path d="M16.6667 2.42831H15.5556V1.21416C15.5556 0.892142 15.4385 0.583316 15.2301 0.355618C15.0217 0.12792 14.7391 0 14.4444 0C14.1498 0 13.8671 0.12792 13.6588 0.355618C13.4504 0.583316 13.3333 0.892142 13.3333 1.21416V2.42831H6.66667V1.21416C6.66667 0.892142 6.5496 0.583316 6.34123 0.355618C6.13286 0.12792 5.85024 0 5.55556 0C5.26087 0 4.97826 0.12792 4.76988 0.355618C4.56151 0.583316 4.44444 0.892142 4.44444 1.21416V2.42831H3.33333C2.44928 2.42831 1.60143 2.81207 0.976311 3.49517C0.35119 4.17826 0 5.10474 0 6.07078V20.6407C0 21.6067 0.35119 22.5332 0.976311 23.2163C1.60143 23.8994 2.44928 24.2831 3.33333 24.2831H16.6667C17.5507 24.2831 18.3986 23.8994 19.0237 23.2163C19.6488 22.5332 20 21.6067 20 20.6407V6.07078C20 5.10474 19.6488 4.17826 19.0237 3.49517C18.3986 2.81207 17.5507 2.42831 16.6667 2.42831ZM5.55556 18.2123C5.3358 18.2123 5.12098 18.1411 4.93826 18.0077C4.75553 17.8743 4.61312 17.6847 4.52902 17.4628C4.44493 17.241 4.42292 16.9968 4.46579 16.7613C4.50867 16.5258 4.61449 16.3095 4.76988 16.1396C4.92527 15.9698 5.12325 15.8542 5.33879 15.8074C5.55432 15.7605 5.77773 15.7846 5.98076 15.8765C6.18379 15.9683 6.35732 16.124 6.47941 16.3236C6.6015 16.5233 6.66667 16.758 6.66667 16.9982C6.66667 17.3202 6.5496 17.629 6.34123 17.8567C6.13286 18.0844 5.85024 18.2123 5.55556 18.2123ZM14.4444 18.2123H10C9.70532 18.2123 9.4227 18.0844 9.21433 17.8567C9.00595 17.629 8.88889 17.3202 8.88889 16.9982C8.88889 16.6762 9.00595 16.3673 9.21433 16.1396C9.4227 15.9119 9.70532 15.784 10 15.784H14.4444C14.7391 15.784 15.0217 15.9119 15.2301 16.1396C15.4385 16.3673 15.5556 16.6762 15.5556 16.9982C15.5556 17.3202 15.4385 17.629 15.2301 17.8567C15.0217 18.0844 14.7391 18.2123 14.4444 18.2123ZM17.7778 10.9274H2.22222V6.07078C2.22222 5.74877 2.33929 5.43994 2.54766 5.21224C2.75603 4.98454 3.03865 4.85662 3.33333 4.85662H4.44444V6.07078C4.44444 6.39279 4.56151 6.70162 4.76988 6.92932C4.97826 7.15702 5.26087 7.28494 5.55556 7.28494C5.85024 7.28494 6.13286 7.15702 6.34123 6.92932C6.5496 6.70162 6.66667 6.39279 6.66667 6.07078V4.85662H13.3333V6.07078C13.3333 6.39279 13.4504 6.70162 13.6588 6.92932C13.8671 7.15702 14.1498 7.28494 14.4444 7.28494C14.7391 7.28494 15.0217 7.15702 15.2301 6.92932C15.4385 6.70162 15.5556 6.39279 15.5556 6.07078V4.85662H16.6667C16.9614 4.85662 17.244 4.98454 17.4523 5.21224C17.6607 5.43994 17.7778 5.74877 17.7778 6.07078V10.9274Z" fill="#EAEBED"/>
</svg>
