<svg width="29" height="28" viewBox="0 0 29 28" fill="none" xmlns="http://www.w3.org/2000/svg">
<path d="M28.2002 14C28.2002 12.1615 27.8381 10.341 27.1345 8.64243C26.4309 6.94387 25.3997 5.40053 24.0997 4.1005C22.7997 2.80048 21.2563 1.76925 19.5578 1.06569C17.8592 0.362121 16.0387 0 14.2002 0C10.4872 0 6.92621 1.475 4.3007 4.1005C1.67519 6.72601 0.200195 10.287 0.200195 14C0.200195 17.713 1.67519 21.274 4.3007 23.8995C6.92621 26.525 10.4872 28 14.2002 28C17.9132 28 21.4742 26.525 24.0997 23.8995C26.7252 21.274 28.2002 17.713 28.2002 14ZM25.3022 12.6H21.2002C20.9693 9.3074 19.8412 6.14089 17.9382 3.444C19.8932 4.13835 21.617 5.3621 22.9173 6.97878C24.2175 8.59546 25.0432 10.5415 25.3022 12.6ZM10.1122 15.4H18.4002C18.0419 18.8588 16.5677 22.1071 14.2002 24.654C11.8343 22.1177 10.3939 18.857 10.1122 15.4ZM10.1122 12.6C10.4382 9.15856 11.8728 5.916 14.2002 3.36C16.5868 5.88857 18.0644 9.13926 18.4002 12.6H10.1122ZM10.6162 3.402C8.70316 6.11383 7.55692 9.29141 7.2982 12.6H3.0982C3.36266 10.5161 4.20785 8.54857 5.53723 6.92212C6.86661 5.29567 8.6266 4.07586 10.6162 3.402ZM3.0982 15.4H7.2982C7.52876 18.7058 8.66723 21.8838 10.5882 24.584C8.60576 23.9068 6.85298 22.6873 5.52897 21.0638C4.20497 19.4404 3.36282 17.4781 3.0982 15.4ZM17.8682 24.57C19.784 21.8689 20.9351 18.7008 21.2002 15.4H25.3302C25.0654 17.4723 24.2263 19.4293 22.9077 21.0498C21.5891 22.6702 19.8435 23.8896 17.8682 24.57Z" fill="#EAEBED" fill-opacity="0.8"/>
</svg>
