<svg width="16" height="14" viewBox="0 0 16 14" fill="none" xmlns="http://www.w3.org/2000/svg">
<path d="M11.888 2.93037H11.2666V2.37821C11.2666 2.23177 11.2012 2.09132 11.0846 1.98777C10.9681 1.88422 10.8101 1.82605 10.6453 1.82605C10.4805 1.82605 10.3224 1.88422 10.2059 1.98777C10.0894 2.09132 10.0239 2.23177 10.0239 2.37821V2.93037H6.29563V2.37821C6.29563 2.23177 6.23017 2.09132 6.11364 1.98777C5.99711 1.88422 5.83906 1.82605 5.67426 1.82605C5.50946 1.82605 5.35141 1.88422 5.23488 1.98777C5.11835 2.09132 5.05288 2.23177 5.05288 2.37821V2.93037H4.43151C3.93711 2.93037 3.46296 3.1049 3.11337 3.41555C2.76378 3.7262 2.56738 4.14753 2.56738 4.58686V11.2128C2.56738 11.6521 2.76378 12.0735 3.11337 12.3841C3.46296 12.6948 3.93711 12.8693 4.43151 12.8693H11.888C12.3824 12.8693 12.8566 12.6948 13.2061 12.3841C13.5557 12.0735 13.7521 11.6521 13.7521 11.2128V4.58686C13.7521 4.14753 13.5557 3.7262 13.2061 3.41555C12.8566 3.1049 12.3824 2.93037 11.888 2.93037ZM5.67426 10.1085C5.55136 10.1085 5.43123 10.0761 5.32904 10.0154C5.22686 9.95475 5.14721 9.86851 5.10018 9.76762C5.05315 9.66672 5.04085 9.5557 5.06482 9.44859C5.0888 9.34148 5.14798 9.2431 5.23488 9.16588C5.32178 9.08865 5.4325 9.03607 5.55304 9.01476C5.67357 8.99346 5.79851 9.00439 5.91205 9.04618C6.02559 9.08797 6.12264 9.15875 6.19091 9.24955C6.25919 9.34035 6.29563 9.44711 6.29563 9.55631C6.29563 9.70275 6.23017 9.8432 6.11364 9.94675C5.99711 10.0503 5.83906 10.1085 5.67426 10.1085ZM10.6453 10.1085H8.15976C7.99496 10.1085 7.83691 10.0503 7.72038 9.94675C7.60385 9.8432 7.53839 9.70275 7.53839 9.55631C7.53839 9.40987 7.60385 9.26943 7.72038 9.16588C7.83691 9.06233 7.99496 9.00415 8.15976 9.00415H10.6453C10.8101 9.00415 10.9681 9.06233 11.0846 9.16588C11.2012 9.26943 11.2666 9.40987 11.2666 9.55631C11.2666 9.70275 11.2012 9.8432 11.0846 9.94675C10.9681 10.0503 10.8101 10.1085 10.6453 10.1085ZM12.5094 6.7955H3.81013V4.58686C3.81013 4.44042 3.8756 4.29997 3.99213 4.19642C4.10866 4.09287 4.26671 4.0347 4.43151 4.0347H5.05288V4.58686C5.05288 4.7333 5.11835 4.87374 5.23488 4.9773C5.35141 5.08085 5.50946 5.13902 5.67426 5.13902C5.83906 5.13902 5.99711 5.08085 6.11364 4.9773C6.23017 4.87374 6.29563 4.7333 6.29563 4.58686V4.0347H10.0239V4.58686C10.0239 4.7333 10.0894 4.87374 10.2059 4.9773C10.3224 5.08085 10.4805 5.13902 10.6453 5.13902C10.8101 5.13902 10.9681 5.08085 11.0846 4.9773C11.2012 4.87374 11.2666 4.7333 11.2666 4.58686V4.0347H11.888C12.0528 4.0347 12.2109 4.09287 12.3274 4.19642C12.4439 4.29997 12.5094 4.44042 12.5094 4.58686V6.7955Z" fill="#231F20"/>
</svg>
