<svg width="24" height="28" viewBox="0 0 24 28" fill="none" xmlns="http://www.w3.org/2000/svg">
<path d="M17.7217 27.9998C13.0235 27.9923 8.51946 25.7185 5.1973 21.6769C1.87515 17.6353 0.00608974 12.1558 0 6.44007C0 4.7321 0.557707 3.09408 1.55043 1.88636C2.54316 0.678648 3.88958 0.00016001 5.29351 0.00016001C5.5908 -0.00259487 5.88759 0.0302292 6.17959 0.0981585C6.46189 0.148978 6.7394 0.233382 7.00814 0.350155C7.19715 0.430835 7.36558 0.570138 7.49677 0.75429C7.62795 0.938442 7.71736 1.16106 7.75614 1.40014L9.33268 9.80002C9.37518 10.028 9.37006 10.2653 9.3178 10.4903C9.26553 10.7153 9.16779 10.9208 9.03349 11.088C8.88389 11.284 8.87238 11.298 7.45694 12.194C8.59044 15.2191 10.5792 17.6485 13.0612 19.0399C13.8091 17.3039 13.8207 17.2899 13.9818 17.1079C14.1192 16.9445 14.2881 16.8256 14.473 16.762C14.658 16.6984 14.853 16.6922 15.0405 16.7439L21.945 18.6619C22.1353 18.7156 22.3111 18.8273 22.4561 18.9865C22.601 19.1457 22.7103 19.3471 22.7736 19.5719C22.8707 19.9042 22.9439 20.2461 22.9922 20.5939C23.0385 20.9457 23.0616 21.3015 23.0613 21.6578C23.0401 23.3585 22.4667 24.9799 21.4663 26.1681C20.4659 27.3563 19.1198 28.0147 17.7217 27.9998ZM5.29351 2.80012C4.50092 2.80381 3.74165 3.18848 3.18121 3.87031C2.62076 4.55213 2.30456 5.47583 2.30152 6.44007C2.30457 11.4143 3.93018 16.1838 6.82137 19.7011C9.71256 23.2184 13.633 25.1961 17.7217 25.1998C18.5143 25.1961 19.2736 24.8114 19.834 24.1296C20.3945 23.4478 20.7107 22.5241 20.7137 21.5598C20.7137 21.4058 20.7137 21.2518 20.7137 21.0979L15.3742 19.5999L15.0405 20.3699C14.5226 21.5878 14.1429 22.4698 13.1762 21.9938C11.2693 21.1635 9.53832 19.8267 8.10912 18.0807C6.67991 16.3347 5.58836 14.2234 4.91376 11.9C4.49948 10.808 5.282 10.304 6.27166 9.67402L6.90457 9.29602L5.67326 2.80012H5.29351Z" fill="#EAEBED" fill-opacity="0.8"/>
</svg>
