<svg width="14" height="14" viewBox="0 0 10 12" fill="none" xmlns="http://www.w3.org/2000/svg">
<path d="M4.971 5.5297e-09C3.66118 -5.81922e-05 2.40426 0.459265 1.47343 1.27814C0.542604 2.09701 0.0130982 3.20925 0 4.37312C0 7.39897 4.3807 10.7672 4.56711 10.9107C4.67966 10.9963 4.8229 11.0433 4.971 11.0433C5.11911 11.0433 5.26234 10.9963 5.3749 10.9107C5.59238 10.7672 9.942 7.39897 9.942 4.37312C9.92891 3.20925 9.3994 2.09701 8.46857 1.27814C7.53774 0.459265 6.28083 -5.81922e-05 4.971 5.5297e-09ZM4.971 9.74565C3.93331 8.86772 1.24275 6.43268 1.24275 4.37312C1.24275 3.49447 1.63555 2.6518 2.33473 2.0305C3.03391 1.40919 3.98221 1.06015 4.971 1.06015C5.9598 1.06015 6.90809 1.40919 7.60727 2.0305C8.30646 2.6518 8.69925 3.49447 8.69925 4.37312C8.69925 6.41612 6.0087 8.86772 4.971 9.74565Z" fill="#231F20"/>
<path d="M4.9712 2.20868C4.54106 2.20868 4.12059 2.32202 3.76294 2.53438C3.40529 2.74673 3.12654 3.04855 2.96194 3.40168C2.79733 3.75481 2.75426 4.14339 2.83818 4.51827C2.92209 4.89315 3.12922 5.2375 3.43338 5.50778C3.73753 5.77805 4.12504 5.96211 4.54692 6.03668C4.96879 6.11125 5.40607 6.07297 5.80347 5.9267C6.20086 5.78043 6.54052 5.53273 6.77949 5.21492C7.01846 4.89711 7.14602 4.52347 7.14602 4.14124C7.14602 3.6287 6.91688 3.13714 6.50903 2.77471C6.10117 2.41229 5.548 2.20868 4.9712 2.20868ZM4.9712 4.96949C4.78686 4.96949 4.60665 4.92091 4.45338 4.8299C4.3001 4.7389 4.18063 4.60954 4.11009 4.4582C4.03954 4.30686 4.02108 4.14033 4.05705 3.97966C4.09301 3.819 4.18178 3.67142 4.31213 3.55559C4.44248 3.43976 4.60856 3.36087 4.78936 3.32892C4.97017 3.29696 5.15757 3.31336 5.32789 3.37605C5.4982 3.43874 5.64377 3.54489 5.74618 3.6811C5.8486 3.8173 5.90326 3.97743 5.90326 4.14124C5.90326 4.36091 5.80507 4.57158 5.63027 4.7269C5.45547 4.88223 5.2184 4.96949 4.9712 4.96949Z" fill="#231F20"/>
</svg>
