<svg width="14" height="14" viewBox="0 0 16 14" fill="none" xmlns="http://www.w3.org/2000/svg">
<path d="M11.0951 12.8431C8.55816 12.8402 6.12612 11.9434 4.33226 10.3493C2.5384 8.75527 1.52917 6.59413 1.52588 4.33981C1.52588 3.66618 1.82702 3.02013 2.36306 2.5438C2.8991 2.06747 3.62613 1.79987 4.38421 1.79987C4.54473 1.79878 4.70499 1.81173 4.86266 1.83852C5.01509 1.85856 5.16494 1.89185 5.31005 1.93791C5.41211 1.96973 5.50306 2.02467 5.5739 2.0973C5.64473 2.16993 5.69301 2.25774 5.71395 2.35203L6.56523 5.665C6.58818 5.75493 6.58541 5.84853 6.55719 5.93726C6.52897 6.02599 6.4762 6.10704 6.40368 6.17299C6.3229 6.25029 6.31668 6.25581 5.55239 6.6092C6.16444 7.80234 7.23831 8.7605 8.57849 9.30927C8.98238 8.62459 8.9886 8.61906 9.07559 8.54728C9.14981 8.48284 9.24101 8.43594 9.34086 8.41086C9.44072 8.38579 9.54605 8.38333 9.64725 8.40372L13.3755 9.16018C13.4782 9.18136 13.5732 9.22542 13.6515 9.2882C13.7297 9.35099 13.7887 9.43045 13.8229 9.51909C13.8753 9.65015 13.9148 9.78502 13.941 9.92216C13.966 10.0609 13.9784 10.2013 13.9782 10.3418C13.9668 11.0126 13.6572 11.6521 13.117 12.1207C12.5768 12.5893 11.85 12.849 11.0951 12.8431ZM4.38421 2.90419C3.95623 2.90565 3.54625 3.05736 3.24363 3.32628C2.941 3.5952 2.77027 3.95951 2.76863 4.33981C2.77028 6.30169 3.64805 8.1828 5.2092 9.57006C6.77035 10.9573 8.88726 11.7373 11.0951 11.7388C11.523 11.7373 11.933 11.5856 12.2356 11.3167C12.5383 11.0478 12.709 10.6835 12.7106 10.3032C12.7106 10.2424 12.7106 10.1817 12.7106 10.1209L9.82745 9.53013L9.64725 9.83382C9.36764 10.3142 9.16258 10.6621 8.64063 10.4743C7.61093 10.1468 6.67627 9.6196 5.90455 8.93097C5.13282 8.24234 4.54342 7.4096 4.17915 6.49324C3.95546 6.06256 4.37799 5.86378 4.91237 5.6153L5.25413 5.46622L4.58926 2.90419H4.38421Z" fill="#231F20"/>
</svg>
