<svg width="11" height="25" viewBox="0 0 11 25" fill="none" xmlns="http://www.w3.org/2000/svg">
<path d="M9.17485 24.9999C8.94004 25.0008 8.70804 24.9419 8.49589 24.8276C8.28374 24.7133 8.09684 24.5464 7.94891 24.3392L0.357546 13.626C0.126375 13.3065 0 12.9057 0 12.4921C0 12.0786 0.126375 11.6778 0.357546 11.3583L8.2161 0.645033C8.48288 0.280394 8.86624 0.0510867 9.28184 0.00755554C9.69744 -0.0359756 10.1112 0.109836 10.4322 0.412911C10.7532 0.715987 10.955 1.1515 10.9933 1.62365C11.0317 2.09579 10.9033 2.56589 10.6365 2.93053L3.61099 12.5011L10.4008 22.0716C10.593 22.3337 10.7151 22.6528 10.7526 22.9913C10.7901 23.3297 10.7415 23.6733 10.6126 23.9814C10.4836 24.2894 10.2797 24.5491 10.0249 24.7296C9.77007 24.9101 9.4751 25.0039 9.17485 24.9999Z" fill="#2E424D"/>
</svg>
