<svg width="300" height="300" viewBox="0 0 300 300" fill="none" xmlns="http://www.w3.org/2000/svg">
<path d="M113.998 257.358C113.596 260.648 104.814 258.85 92.5891 257.358C80.364 255.867 69.5384 253.5 69.7268 251.956C69.9153 250.412 79.2749 249.508 91.5 251C103.725 252.492 114.399 254.069 113.998 257.358Z" fill="#A4A4A4"/>
<path d="M273.998 260.358C273.998 262.217 264.225 261.992 252 260.5C239.775 259.008 229.325 258.245 229.727 254.956C230.128 251.667 239.775 252.508 252 254C264.225 255.492 273.998 258.5 273.998 260.358Z" fill="#A4A4A4"/>
<path d="M252.5 262.5C252.5 266.09 247.5 274 170.5 264C123.5 269 96 266.09 96 262.5C96 258.91 146.461 256 168 256C189.539 256 252.5 258.91 252.5 262.5Z" fill="#A4A4A4"/>
<rect x="94" y="96" width="158" height="158" rx="20" fill="#BC8E48"/>
<ellipse cx="255.487" cy="193.903" rx="30.5" ry="10.5" transform="rotate(31.5384 255.487 193.903)" fill="#BC8E48"/>
<ellipse cx="85.4871" cy="176.903" rx="30.5" ry="10.5" transform="rotate(31.5384 85.4871 176.903)" fill="#BC8E48"/>
<rect x="101" y="102" width="149" height="150" rx="20" fill="#FADFB7"/>
<circle cx="119.5" cy="223.5" r="1.5" fill="#F4CD92" fill-opacity="0.6"/>
<circle cx="117.5" cy="210.5" r="0.5" fill="#F4CD92" fill-opacity="0.6"/>
<circle cx="241.5" cy="227.5" r="0.5" fill="#F4CD92" fill-opacity="0.6"/>
<circle cx="112" cy="208" r="1" fill="#F4CD92" fill-opacity="0.6"/>
<circle cx="230.405" cy="150.405" r="1" transform="rotate(128.402 230.405 150.405)" fill="#F0F0F0" fill-opacity="0.4"/>
<circle cx="118.5" cy="214.5" r="1.5" fill="#F4CD92" fill-opacity="0.6"/>
<circle cx="242.81" cy="147.81" r="2" transform="rotate(128.402 242.81 147.81)" fill="#F0F0F0" fill-opacity="0.4"/>
<circle cx="131" cy="147" r="2" fill="#F4CD92" fill-opacity="0.6"/>
<circle cx="235.81" cy="226.81" r="2" transform="rotate(128.402 235.81 226.81)" fill="#F0F0F0" fill-opacity="0.4"/>
<circle cx="239" cy="150" r="1" fill="#F4CD92" fill-opacity="0.6"/>
<circle cx="236" cy="234" r="2" fill="#F4CD92" fill-opacity="0.6"/>
<circle cx="113.32" cy="213.241" r="1.96788" transform="rotate(128.402 113.32 213.241)" fill="#F0F0F0" fill-opacity="0.4"/>
<circle cx="120.109" cy="219.617" r="1.15116" transform="rotate(128.402 120.109 219.617)" fill="#F0F0F0" fill-opacity="0.4"/>
<path d="M93.5195 115.359H256.932L308 145.522H46L93.5195 115.359Z" fill="#81581B"/>
<path d="M94 108H257L256.932 115.359L93.5 115.5L94 108Z" fill="#432801"/>
<path d="M102.316 48.9424C110.243 29.8382 167.797 56.0446 181.658 57.6851C195.518 59.3257 242.5 41 245.357 53.8638L257 108H94L102.316 48.9424Z" fill="#81581B"/>
<path d="M196 59.5C196 61.5 196.351 65.5 190 65.5C183.649 65.5 170.5 58 170.5 57.5C170.5 53.0817 177.649 58 184 58C190.351 58 196 55.0817 196 59.5Z" fill="#75511B"/>
<path d="M94.5 104L120.5 108H94L94.5 104Z" fill="#75511B"/>
<path d="M59 137.5L192 145H155L46.5 145.5L59 137.5Z" fill="#75511B"/>
<path d="M252 145.5H308L252 148.5V145.5Z" fill="#75511B"/>
<path d="M187.342 258.51C185.981 254.034 187.817 249.359 194.5 246.5C201.183 243.641 207.415 244.24 216.789 244.412C226.163 244.583 236.475 246.87 240.164 248.611C246.738 251.712 254.449 258.465 251.54 259.684L216.195 259.038L187.342 258.51Z" fill="#186320"/>
<path d="M252 259.261C252 263.295 236.329 265 218.24 265C200.152 265 187 262.251 187 258.217C187 254.183 211.69 255.087 218.24 255.086C219.752 255.086 252 255.226 252 259.261Z" fill="#547155"/>
<path d="M149.249 259.644C151.377 255.475 153.288 251.921 147.167 247.936C141.047 243.951 131.855 242.08 122.54 240.608C113.226 239.137 102.615 239.584 98.6578 240.653C91.6065 242.557 82.7932 247.857 85.4616 249.566L120.581 255.115L149.249 259.644Z" fill="#186320"/>
<path d="M149 259.5C148.289 263.581 124.5 261.481 116 260C105 258.084 84.2892 253.081 85 249C85.3116 247.211 108 247.5 116 248.5C124 249.5 149.784 255 149 259.5Z" fill="#547155"/>
<path d="M149.231 259.591C149.231 263.733 124.178 261.979 115.678 260.498C104.678 258.582 84.2892 253.081 85 249C85.3116 247.211 107.678 248.998 115.678 249.998C123.678 250.998 149.231 256 149.231 259.591Z" fill="#D9D9D9"/>
<path d="M98 241C98 243 94.1569 247.5 92.5 247.5C90.8431 247.5 85.5 248.552 85.5 248C85.5 247.448 89.5 244.5 91.5 243.5C93.7361 242.382 98 240.5 98 241Z" fill="#9BCEA1" fill-opacity="0.3"/>
<path d="M252 259.5C252 263.366 235.449 265.998 217.5 265.998C199.551 265.998 187 262.364 187 258.498C187 256.048 211 256.5 217.5 256.5C219 256.5 252 255.634 252 259.5Z" fill="#D9D9D9"/>
<path d="M233 247C236.03 247.649 240.025 248.572 244 251C245.822 251.961 247.042 252.868 249.5 255C251.137 256.57 251.714 257.346 252 258.5C251.199 257.804 250.184 257.481 247.5 257C241.539 255.947 237.223 255.5 227.5 255C226.678 248.59 227.969 246.93 233 247Z" fill="#9BCEA1" fill-opacity="0.3"/>
<path d="M87 189.5C87 189 94.0127 190.726 95 191.5C95.9873 192.274 96.6462 199.893 95.5127 200.726C94.3792 201.559 94 200.5 94.0127 198.226V192.726C94.0127 192.726 87 190 87 189.5Z" fill="#AE8444"/>
<path d="M251.5 202.5C252 202 254.5 204 256.5 205.5C258.5 207 258.5 207.5 255.5 206C252.5 204.5 252 203.5 252 204C252 204.5 252 209 252 211C252 213 251.5 211 251.5 210C251.5 209 251 203 251.5 202.5Z" fill="#AE8444"/>
<path d="M255 145.5C255 148.5 224.825 153.5 176.5 153.5C128.175 153.5 94 148 94 145.5C94 139.701 118.175 142 166.5 142C214.825 142 255 139.701 255 145.5Z" fill="#75511B" fill-opacity="0.15"/>
<ellipse cx="155.192" cy="173.659" rx="5.5" ry="22.5" transform="rotate(-1.76979 155.192 173.659)" fill="#252525"/>
<ellipse cx="199.372" cy="173.697" rx="5.5" ry="22.5" transform="rotate(2.23253 199.372 173.697)" fill="#252525"/>
<path d="M176.966 209.499L176.995 209.501L177.025 209.499L202.588 208.239C203.568 208.191 204.47 208.557 205.063 209.152C205.648 209.74 205.934 210.55 205.713 211.45C205.375 212.83 204.832 214.192 204.089 215.512C202.651 218.062 200.494 220.403 197.737 222.383C194.979 224.364 191.686 225.938 188.057 227.004C184.427 228.07 180.544 228.605 176.645 228.573C172.747 228.541 168.921 227.944 165.403 226.82C161.885 225.696 158.755 224.071 156.201 222.052C153.648 220.033 151.729 217.667 150.548 215.103C149.896 213.688 149.476 212.227 149.29 210.75C149.078 209.056 150.632 207.693 152.52 207.823L176.966 209.499Z" fill="#FFCFCF" stroke="#DBACAC"/>
</svg>
