<svg width="200" height="50" viewBox="0 0 200 50" fill="none" xmlns="http://www.w3.org/2000/svg">
<path d="M17.5 12.5V14H19V16H17.5V17.5H19M17.5 11H19V12.5H20.5V16H23.5V17.5H25M19 6.5H20.5V8H19V10M20.5 3.5V5H22V6.5H23.5V8H22V9.5H20.5V11H22V12.5H23.5M23.5 12.5V14.5H22M23.5 12.5H25M25 12.5H26.5V14H25V16H26.5M25 12.5V10.5M23.5 11V9.5H25M29.5 12.5H28V11H26.5V9.5H25M29.5 12.5V14H28V16.5M29.5 12.5H31M31 12.5H32.5V14H34V16M31 12.5V10.5M25 9.5V8H26.5V6M25 1.5V3.5H23.5V5H25M25 5V6.5M25 5H26.5M29.5 9.5H28V8H29.5V6.5H28V5H26.5M29.5 9.5V11M29.5 9.5H31M32.5 9.5V11M32.5 9.5H31M32.5 9.5H34M31 9.5V7.5M26.5 5V3M28 1.5V3.5H29.5V5H31V6.5H32.5M34 11V12.5M16 16V17.5V19H17.5V20.5H19M40 29V27H38.5M37 29V27H38.5M38.5 27V25M38.5 24V22H35.5V24M37 23.5V25.5H35.5M35.5 25.5V28M35.5 25.5H34M34 25.5H32.5V27H31M34 25.5V23.5M31 25.5V24H32.5V22.5H34V20.5H35.5V19M35.5 19H37V17.5M35.5 19H34M37 21.5V20.5H38.5M31 19.5V17.5H32.5V16H34M35.5 18V16H34M31 13.5V16H29.5V17.5H28V19H29.5V20.5H31M34 19H32.5V20.5H31M34 19V17.5M31 20.5V22.5M22 25V23.5H20.5V22H22V20.5H23.5V19H22V17.5H19M19 17.5V19.5M20.5 19V20.5H19M19 20.5V22H17.5V24M19 28.5V26.5H20.5V25H19M19 25V23.5M19 25H17.5M14.5 19V20.5H16V22H14.5V23.5H16V25H17.5M17.5 25V28M16 28.5V26.5H14.5V25H13V23.5M13 28.5V26.5H11.5M43 49.5965V51.5614H41.5V53.0351H40M43 46.6491V48.614H41.5V50.0877H40M40 50.0877V51.5614M40 50.0877H38.5M37 45.1754V43.7018H38.5M38.5 43.7018V41.7368H40V40.2632M38.5 43.7018H40M40 43.7018V45.6667M40 43.7018H41.5V42.2281H43V40.2632H41.5V38.7895H40V37.3158H41.5V35.8421H40M43 43.7018V45.6667H41.5V46.6491H40M40 46.6491V48.614M40 46.6491H38.5V45.1754M31 43.7018H32.5V42.2281H34M34 42.2281H35.5H37V40.2632H35.5V38.7895H34V37.3158H35.5V35.8421H37V34.3684H38.5V32.8947H40M34 42.2281V40.2632H32.5V38.7895H31M25 43.7018H23.5V40.2632H20.5V38.7895H19V37.3158H17.5V35.8421H16V34.3684H14.5V32.4035H13M22 43.7018H20.5M20.5 43.7018V41.7368H22M20.5 43.7018H19H17.5V42.2281H19V40.2632H17.5V38.7895H16M16 45.1754V43.7018H14.5M14.5 43.7018V42.2281H16V39.7719M14.5 43.7018H13M13 43.7018H11.5V42.2281H10V40.2632M13 43.7018V45.6667M14.5 49.5965V48.1228H16M16 46.6491H14.5M14.5 46.6491V45.1754M14.5 46.6491H13M11.5 46.6491V45.1754M11.5 46.6491H13M11.5 46.6491H10V48.1228H11.5V49.5965H13V51.0702H14.5M13 46.6491V48.614M13 54.5088V52.5439H11.5V51.0702M10 54.5088V52.5439H8.5V51.0702H10V49.5965H8.5M7 54.5088V52.5439H5.5V51.0702H7V49.5965H8.5M8.5 49.5965V48.1228M4 54.5088V52.5439H2.5M4 51.5614V49.5965H5.5V48.1228H7V46.6491H8.5V45.1754H10V43.7018H8.5V42.2281H7V40.2632H8.5M5.5 43.7018H7V45.1754H5.5V46.6491M40 40.2632V41.2456M40 40.2632H38.5V38.7895H37V37.3158H38.5V35.8421H40M28 40.2632H31V42.2281H29.5V43.7018H28H26.5V42.2281H25V40.2632H26.5V38.7895H25M28 40.2632V42.2281M28 40.2632V38.7895M10 30.9298H11.5V29.4561H13V27.4912M16 27.4912V29.4561H14.5V30.9298H13V32.4035M13 32.4035H11.5V33.8772H10V35.8421H8.5V37.3158H10M13 36.8246V38.7895H11.5V40.2632H10M8.5 40.2632V38.2982M8.5 40.2632H10M13 42.7193V40.2632H14.5V38.7895H16M16 38.7895V37.3158H14.5V35.8421H13M10 37.3158H11.5V35.8421H13M10 37.3158V38.7895M13 35.8421V33.8772M17.5 34.3684V32.4035H16V30.9298H17.5V29.9474H19M19 32.4035V29.9474M19 29.9474V27.4912M22 35.8421H20.5V37.3158H22V38.7895H25M25 38.7895V36.8246M23.5 37.3158V35.8421H25H26.5V37.3158H28V38.7895M28 38.7895H31M31 38.7895V36.8246M28 35.8421H29.5M29.5 35.8421V37.3158M29.5 35.8421H31H32.5M32.5 35.8421V37.3158M32.5 35.8421H34V34.3684H32.5M34 27V29.9474H35.5V31.4211H34V32.8947H35.5M37 27.9825V29.9474H38.5V31.4211H37V32.8947H35.5M35.5 32.8947V34.3684M40 27.9825V29.9474H41.5V31.4211M40 30.9298V32.8947M40 32.8947H41.5V34.3684H43V36.5M40 35.8421V33.8772M48.4035 54H46.4386V52.5H44.9649V51M44.9649 51H43V54.5M44.9649 51V49.5M43 48H44.9649V49.5M44.9649 49.5H46.9298M51.3509 54H49.386V52.5H47.9123V51M47.9123 51H46.4386M47.9123 51V49.5H49.8772M48.4035 48H46.4386V46.5M46.4386 46.5H42.5M46.4386 46.5V45V44H44.9649L45 42H43.0351M43 37.5V39H44.9649V40.5H46" stroke="#98DAD9"/>
<path d="M13.3786 55H1L20.8058 2H30.7087L52 55H40.6116L36.1553 43.7885H17.3398L13.3786 55Z" stroke="#98DAD9"/>
<path d="M54 11.7767V2H75V11.7767H68.8537V45.2233H75V55H54V45.2233H60.1463V11.7767H54Z" stroke="#98DAD9"/>
<path d="M74.5 55H72.5V53.5H71V52M71 52H69M71 52V50.5M69 49H71V50.5M71 50.5H73M74 53.5V52M74 52H72.5M74 52V50.5M74.5 49H72.5V47.5H70M54.2982 49V50.5M54.2982 50.5H56.2631V52H57.7368M54.2982 50.5V52V53.5H55.7719V55H57.7368V53.5H59.2105V52H60.6842V53.5H62.1579V52M53.807 47.5H55.7719V49H57.7368V47.5H59.2105M57.7368 52H56.7544M57.7368 52V50.5H59.2105V49H60.6842V50.5H62.1579V52M65.1053 13H67.0702V14.5M62.1579 13H64.1228V14.5H65.5965V16M65.5965 16H67.0702M65.5965 16V17.5H63.6316V20.5H65.5965M65.1053 19H67.0702V20.5M67.0702 20.5V22M67.0702 20.5H68.5M67.0702 22V23.5M67.0702 22H65.1053M65.5965 25H67.0702V26.5H69M65.5965 25V23.5H64.1228V22H62.1579V20.5H60.6842M65.5965 25V26.5H63.6316V28H62.1579V29.5H60.6842V31M60.6842 20.5V19M60.6842 20.5V22V23.5H62.1579V25M61.1754 13V14.5H62.1579V16M63.1403 19H62.1579V17.5M62.1579 16H64.1228M62.1579 16V17.5M62.1579 17.5H60.6842M60.6842 28V26.5H62.1579V25M62.1579 25H64.1228M68.0526 31V29.5H67.0702V28H65.5965V29.5H63.6316V31M68.0526 31V32.5H66.5789V34H65.1053V35.5H63.6316V34H62.1579V32.5H60.6842V34M68.0526 31H65.1053V32.5H63.6316V31M63.6316 31H61.6667M60.6842 35.5H62.1579V37M60.6842 40V38.5H62.1579V37M62.1579 37H63.6316V38.5H65.5965M68.0526 37V35.5H66.5789V37M66.5789 37H65.1053M66.5789 37V38.5V40H65.1053V41.5H63.6316V40H62.1579V41.5M62.1579 41.5H60.6842M62.1579 41.5V43M62.1579 44.5H60.6842M62.1579 44.5V43M62.1579 44.5V46H63.6316V44.5H65.1053V43H66.5789V41.5H68.0526V40M62.1579 43H64.1228M68.0526 43V44.5H66.5789M68.0526 46V47.5H66.5789V46H65.1053V47.5M70.0175 49H68.0526V50.5H66.5789V49H65.1053V47.5M65.1053 47.5H63.6316M70.0175 52H68.0526V53.5H66.5789V55H65.1053M67.0702 52H65.1053M65.1053 52V50.5H63.6316V49H62.1579V47.5H60.6842V46M65.1053 52V53.5H63.6316V55H62.1579H60M62.1579 52H64.1228M74 5V3.5H72.5M74 8.5V6.5H72.5M74 10V11H72.5M72.5 11H71V9.5H69.5V8H68V6.5H69.5V5H71V3.5H69.5M72.5 11V8H71V6.5H72.5M72.5 6.5V4.5M63.5 3.5H65V5H66.5M66.5 5H68V3.5V2M66.5 5V6.5H65V8.5M66.5 13V11H68V9.5H66.5M66.5 9.5V8M66.5 9.5H65M62 5H63.5V6.5H62V8H63.5V9.5H65M62 5V3.5V2M62 5H60.5M59 5V3.5V2M59 5H60.5M59 5H57.5V6.5H59V8H60.5V9.5H62V11H63.5V13M60.5 5V7M65 9.5V11.5M60.5 13V11H59V9.5M57.5 11H56V9.5H57.5V8H56M54.5 9.5V8H56M56 8V6.5M54.5 6.5V5H56V3.5H57.5M69.5 53.5V55.5M68.0526 55H71M67.0702 17.5H68.5M69.5 11V12.5M60.5 2.5V3.5M66.5 2V3.5" stroke="#98DAD9"/>
<path d="M111 1H102L117.5 36.5L109 55H119L143 1H133L122 25.5L111 1Z" fill="#EAEBED" stroke="#2E424D"/>
<path d="M165 37.5412C165 42.6143 163.251 46.9753 160.262 50.0653C157.275 53.1539 153.022 55 147.959 55C137.855 55 130.5 47.6447 130.5 37.5412C130.5 32.4778 132.346 28.2251 135.435 25.2376C138.525 22.2486 142.886 20.5 147.959 20.5C153.031 20.5 157.284 22.2476 160.268 25.2318C163.252 28.2159 165 32.4693 165 37.5412Z" fill="#EAEBED" stroke="#2E424D"/>
<path d="M156.647 37.5412C156.647 40.3281 155.821 42.7082 154.341 44.3844C152.867 46.0536 150.71 47.0647 147.959 47.0647C145.207 47.0647 143.051 46.0536 141.577 44.3844C140.097 42.7082 139.271 40.3281 139.271 37.5412C139.271 34.7555 140.096 32.4864 141.567 30.9178C143.034 29.3534 145.191 28.4353 147.959 28.4353C150.727 28.4353 152.883 29.3534 154.351 30.9178C155.822 32.4864 156.647 34.7555 156.647 37.5412Z" fill="#EAEBED" stroke="#2E424D"/>
<path d="M176.09 20H167V40.55C167 58.9139 188.209 56.2905 188.209 51.4809V54.5416H196V20H188.209V41.4245C188.209 47.983 176.09 47.983 176.09 41.4245V20Z" fill="#EAEBED" stroke="#2E424D"/>
<rect x="77.5" y="24.5" width="20" height="9" stroke="black"/>
</svg>
