<svg width="39" height="43" viewBox="0 0 39 43" fill="none" xmlns="http://www.w3.org/2000/svg">
<path d="M32.157 19.7084H6.33517C5.49368 19.7084 4.81152 20.4705 4.81152 21.4105V21.5897C4.81152 22.5297 5.49368 23.2918 6.33517 23.2918H32.157C32.9984 23.2918 33.6806 22.5297 33.6806 21.5897V21.4105C33.6806 20.4705 32.9984 19.7084 32.157 19.7084Z" fill="#98DAD9" fill-opacity="0.5"/>
<path d="M32.157 28.6667H6.33517C5.49368 28.6667 4.81152 29.4287 4.81152 30.3688V30.5479C4.81152 31.488 5.49368 32.25 6.33517 32.25H32.157C32.9984 32.25 33.6806 31.488 33.6806 30.5479V30.3688C33.6806 29.4287 32.9984 28.6667 32.157 28.6667Z" fill="#98DAD9" fill-opacity="0.5"/>
<path d="M32.157 10.75H6.33517C5.49368 10.75 4.81152 11.512 4.81152 12.4521V12.6313C4.81152 13.5713 5.49368 14.3333 6.33517 14.3333H32.157C32.9984 14.3333 33.6806 13.5713 33.6806 12.6313V12.4521C33.6806 11.512 32.9984 10.75 32.157 10.75Z" fill="#98DAD9" fill-opacity="0.5"/>
</svg>
